<?xml version="1.0" encoding="UTF-8"?>
<svg width="26px" height="21px" viewBox="0 0 26 21" version="1.1" xmlns="http://www.w3.org/2000/svg" xmlns:xlink="http://www.w3.org/1999/xlink">
    <!-- Generator: sketchtool 63.1 (101010) - https://sketch.com -->
    <title>6E2067F9-0F80-4B59-A35A-3B44992BE113@svg</title>
    <desc>Created with sketchtool.</desc>
    <g id="tel-320" stroke="none" stroke-width="1" fill="none" fill-rule="evenodd">
        <g id="320-home-ENG" transform="translate(-255.000000, -4869.000000)" fill="#FFFFFF">
            <g id="interkom" transform="translate(242.000000, 4855.000000)">
                <g id="contact_ico" transform="translate(13.679245, 14.117647)">
                    <path d="M20.885631,0 L3.64291496,0 C2.67519661,0 1.74866018,0.370341214 1.06547109,1.02808362 C0.382306525,1.68582603 -0.000949468072,2.57753146 0,3.50708696 L0,12.7328375 C-0.00190912861,13.6623222 0.381349918,14.554971 1.06448996,15.2137274 C1.74765452,15.8714698 2.67512302,16.2417875 3.64291496,16.2417875 L4.90573186,16.2417875 L4.90573186,19.307526 C4.90573186,20.7630203 5.81595568,21.1443984 6.92645621,20.1568766 L11.3270937,16.2416931 L20.8931636,16.2416931 C21.8589688,16.2398513 22.7845228,15.8686164 23.4666793,15.2108739 C24.1479061,14.5531315 24.5302055,13.6614261 24.5283019,12.7328139 L24.5283019,3.50706338 C24.5292489,2.57757862 24.1459954,1.68584962 23.4628283,1.02806004 C22.7796638,0.370317631 21.8531531,0 20.8853857,0 L20.885631,0 Z"></path>
                </g>
            </g>
        </g>
    </g>
</svg>