<?xml version="1.0" encoding="UTF-8"?>
<svg width="135px" height="17px" viewBox="0 0 135 17" version="1.1" xmlns="http://www.w3.org/2000/svg" xmlns:xlink="http://www.w3.org/1999/xlink">
    <!-- Generator: sketchtool 63.1 (101010) - https://sketch.com -->
    <title>01C05A6E-5C2A-4FC3-B2BB-5F5696DF078C@svg</title>
    <desc>Created with sketchtool.</desc>
    <g id="tel-320" stroke="none" stroke-width="1" fill="none" fill-rule="evenodd">
        <g id="320-home-ENG" transform="translate(-163.000000, -971.000000)">
            <g id="Group" transform="translate(22.000000, 971.000000)">
                <g id="efl" transform="translate(141.000000, 0.000000)">
                    <path d="M17.043356,10.7222689 L19.8137602,9.24484622 L21.8730822,13.5071143 L18.8087406,13.5071143 C18.8087406,13.5088668 18.2191057,13.5088668 17.9832517,12.9795885 C17.7649988,12.3942277 17.0468762,10.7240215 17.043356,10.7222689 Z M22.5313612,14.8671143 L22.5313612,16.8527844 L0.246680652,16.8527844 L0.246680652,14.8671143 L22.5313612,14.8671143 Z" id="Path-1" fill="#607477" fill-rule="nonzero"></path>
                    <path d="M24.1840992,2.2993823 C24.180579,2.29762972 20.6779714,4.3008256 19.8577628,4.60577405 C19.1044381,4.90195962 18.8210614,4.51113488 18.7295359,4.37268127 C18.5271239,4.06598024 18.1962243,3.04948539 18.1487015,2.89525859 C18.1698228,2.90051632 18.3616741,2.93907302 18.8105007,2.82515549 C19.3438123,2.69020704 24.180579,-0.00175172194 24.1840992,1.86792162e-15 L24.1840992,2.2993823 Z" id="Path-2" fill="#227F5E" fill-rule="nonzero"></path>
                    <path d="M18.5764069,6.42494931 L16.2741904,1.34598024 L12.926472,1.34598024 L8.22523346,10.0825782 C8.22875366,10.0843308 10.5380105,10.0107225 12.0182582,8.89958848 C12.3931604,8.6822689 13.4474629,5.92195962 14.4155203,4.06598024 L15.9186494,7.81474312 C13.6463547,8.97494931 11.4867067,9.99144415 10.3232778,10.3191761 C7.25541598,11.1989699 3.51871455,11.7264957 2.17751507,10.543506 C0.915520287,9.42711426 3.83025301,4.75474312 9.34289969,3.71546477 C10.2370327,3.51567096 10.7597837,3.56824828 10.7597837,3.57350601 C10.7597837,3.56824828 10.3813612,1.97515549 10.0874238,1.64041323 C9.6755594,1.13917611 9.27249552,1.03577405 8.67229995,1.11113488 C7.47894923,1.18299055 2.40280842,2.5307225 0.398049622,6.7421658 C-0.717856506,9.13618642 0.767671526,11.5529905 1.72868847,12.2522689 C2.17575497,12.5764957 5.05880582,15.1510318 11.7260809,12.5484545 C18.2947902,10.0107225 24.180579,6.01484622 24.1840992,6.01484622 L24.1840992,3.34041323 C24.1823391,3.33690807 21.5879453,4.81783591 18.5764069,6.42494931 Z" id="Path-3" fill="#607477" fill-rule="nonzero"></path>
                    <path d="M30.6577628,7.33804209 L30.6577628,1.27237199 L38.5641513,1.27237199 L38.5641513,2.63587714 L32.5287537,2.63587714 L32.5287537,4.69515549 L38.0660418,4.69515549 L38.0660418,6.02185653 L32.5287537,6.02185653 L32.5287537,7.33804209 C32.5287537,8.08113488 32.889575,8.43340292 33.6252986,8.43340292 L38.7401617,8.43340292 L38.7401617,9.79866065 L33.176472,9.79866065 C31.5800574,9.79866065 30.6577628,8.88381529 30.6577628,7.33804209 Z M41.0476585,1.27237199 L48.954047,1.27237199 L48.954047,2.63587714 L42.9186494,2.63587714 L42.9186494,5.30329982 L48.2060027,5.30329982 L48.2060027,6.63175343 L42.9186494,6.63175343 L42.9186494,9.79866065 L41.0476585,9.79866065 L41.0476585,1.27237199 Z M51.013369,1.27237199 L52.8843599,1.27237199 L52.8843599,8.43340292 L58.4357289,8.43340292 L58.4357289,9.79866065 L51.013369,9.79866065 L51.013369,1.27237199 Z" id="Path-4" fill="#227F5E" fill-rule="nonzero"></path>
                    <path d="M33.4739297,11.8842277 C34.2114134,11.8842277 34.9770587,12.1103101 35.605416,12.5642277 L35.1266676,13.1898978 C34.6144773,12.832372 34.1832517,12.6325782 33.5355333,12.6325782 C32.4073065,12.6325782 31.5254942,13.3265988 31.5254942,14.3571143 C31.5254942,15.3736091 32.3122608,16.1096916 33.5003312,16.1096916 C34.0266024,16.1096916 34.5123912,15.9642277 34.8538514,15.7381452 L34.8538514,14.8180421 L33.412326,14.8180421 L33.412326,14.0819596 L35.8782322,14.0819596 L35.8782322,16.1026813 C35.3044381,16.5145369 34.49127,16.8580421 33.4598488,16.8580421 C31.6557419,16.8580421 30.4606311,15.7854648 30.4606311,14.3641246 C30.4606311,12.7903101 31.9232778,11.8842277 33.4739297,11.8842277 Z M37.0046989,11.9665988 L39.5938123,11.9665988 C40.7959636,11.9665988 41.7728215,12.4538153 41.7728215,13.512372 C41.7728215,14.3360833 41.1726259,14.7689699 40.3594577,14.9547431 L41.9241904,16.775671 L40.7290796,16.775671 L39.3069153,15.0984545 L38.0290796,15.0984545 L38.0290796,16.775671 L37.0046989,16.775671 L37.0046989,11.9665988 Z M39.519888,14.3501039 C40.2432908,14.3501039 40.7079584,14.0486606 40.7079584,13.5263926 C40.7079584,13.0181452 40.2644121,12.7359802 39.5128475,12.7359802 L38.0290796,12.7359802 L38.0290796,14.3501039 L39.519888,14.3501039 Z M42.6405529,14.611238 L42.6405529,11.9665988 L43.6666937,11.9665988 L43.6666937,14.6725782 C43.6666937,15.5313411 44.2598488,16.1096916 45.1627823,16.1096916 C46.0569153,16.1096916 46.6518306,15.5313411 46.6518306,14.6725782 L46.6518306,11.9665988 L47.6427693,11.9665988 L47.6427693,14.611238 C47.6427693,15.9572174 46.6447902,16.8580421 45.1416611,16.8580421 C43.638532,16.8580421 42.6405529,15.9572174 42.6405529,14.611238 Z M48.802678,11.9665988 L51.4199531,11.9665988 C52.650266,11.9665988 53.6535255,12.4958771 53.6535255,13.6297947 C53.6535255,14.7549493 52.6643469,15.3262895 51.4199531,15.3262895 L49.8288189,15.3262895 L49.8288189,16.775671 L48.802678,16.775671 L48.802678,11.9665988 Z M51.3865112,14.5569081 C52.1169544,14.5569081 52.5886624,14.2134029 52.5886624,13.6297947 C52.5886624,13.0584545 52.1380757,12.7359802 51.3794707,12.7359802 L49.8288189,12.7359802 L49.8288189,14.5569081 L51.3865112,14.5569081 Z" id="Path-5" fill="#607477"></path>
                    <path d="M57.425429,15.6137122 L54.7887928,15.6137122 L54.2149988,16.775671 L53.1694968,16.775671 L55.6494838,11.9665988 L56.6949857,11.9665988 L59.1732126,16.775671 L57.999223,16.775671 L57.425429,15.6137122 Z M57.0487667,14.8653617 L56.1071109,12.9550524 L55.163695,14.8653617 L57.0487667,14.8653617 Z M64.5098488,11.8842277 C65.2473325,11.8842277 66.0129779,12.1103101 66.6413352,12.5642277 L66.1625868,13.1898978 C65.6503964,12.832372 65.220931,12.6325782 64.5714525,12.6325782 C63.4432256,12.6325782 62.5631735,13.3406194 62.5631735,14.3711349 C62.5631735,15.4016503 63.4432256,16.1096916 64.5714525,16.1096916 C65.254373,16.1096916 65.7049597,15.8958771 66.2523521,15.5243308 L66.7293404,16.1500009 C66.0869023,16.6109287 65.2807745,16.8580421 64.5098488,16.8580421 C62.9591969,16.8580421 61.4965503,15.937939 61.4965503,14.3641246 C61.4965503,12.7903101 62.9591969,11.8842277 64.5098488,11.8842277 Z M67.582991,11.9665988 L70.1721044,11.9665988 C71.3760157,11.9665988 72.3528736,12.4538153 72.3528736,13.512372 C72.3528736,14.3360833 71.7509179,14.7689699 70.9377498,14.9547431 L72.5024825,16.775671 L71.3073717,16.775671 L69.8852074,15.0984545 L68.6091318,15.0984545 L68.6091318,16.775671 L67.582991,16.775671 L67.582991,11.9665988 Z M70.09818,14.3501039 C70.8215829,14.3501039 71.2862504,14.0486606 71.2862504,13.5263926 C71.2862504,13.0181452 70.8427041,12.7359802 70.0911396,12.7359802 L68.6091318,12.7359802 L68.6091318,14.3501039 L70.09818,14.3501039 Z M76.6228866,10.5925782 L75.8290796,11.4373204 L74.9543078,11.4373204 L75.5562634,10.5925782 L76.6228866,10.5925782 Z M73.3226911,15.3876297 L73.3226911,11.9665988 L77.6543078,11.9665988 L77.6543078,12.7359802 L74.3470718,12.7359802 L74.3470718,13.897939 L77.3797315,13.897939 L77.3797315,14.6462895 L74.3470718,14.6462895 L74.3470718,15.3876297 C74.3470718,15.8064957 74.5459636,16.0062895 74.9490275,16.0062895 L77.7493534,16.0062895 L77.7493534,16.775671 L74.7026129,16.775671 C73.827841,16.775671 73.3226911,16.2604132 73.3226911,15.3876297 Z M78.8089362,11.9665988 L80.9668241,11.9665988 C82.8114134,11.9665988 84.0417263,12.9287637 84.0417263,14.3711349 C84.0417263,15.813506 82.8114134,16.775671 80.9668241,16.775671 L78.8089362,16.775671 L78.8089362,11.9665988 Z M81.0354681,16.0062895 C82.197137,16.0062895 82.9751031,15.3525782 82.9751031,14.3781452 C82.9751031,13.3949493 82.197137,12.7359802 81.0354681,12.7359802 L79.8333169,12.7359802 L79.8333169,16.0062895 L81.0354681,16.0062895 Z M84.9640209,11.9665988 L85.9884016,11.9665988 L85.9884016,16.775671 L84.9640209,16.775671 L84.9640209,11.9665988 Z M86.8420522,12.7359802 L86.8420522,11.9665988 L91.5432908,11.9665988 L91.5432908,12.7359802 L89.7039818,12.7359802 L89.7039818,16.775671 L88.6796011,16.775671 L88.6796011,12.7359802 L86.8420522,12.7359802 Z M97.3692361,15.6137122 L94.7325998,15.6137122 L94.1588058,16.775671 L93.1133039,16.775671 L95.5932908,11.9665988 L96.6387928,11.9665988 L99.1187797,16.775671 L97.9430301,16.775671 L97.3692361,15.6137122 Z M96.9943338,14.8653617 L96.0509179,12.9550524 L95.1092621,14.8653617 L96.9943338,14.8653617 Z M102.267606,11.8842277 C103.00509,11.8842277 103.770735,12.1103101 104.399093,12.5642277 L103.920344,13.1898978 C103.408154,12.832372 102.978688,12.6325782 102.32921,12.6325782 C101.202743,12.6325782 100.320931,13.3265988 100.320931,14.3571143 C100.320931,15.3736091 101.105937,16.1096916 102.294008,16.1096916 C102.820279,16.1096916 103.306068,15.9642277 103.647528,15.7381452 L103.647528,14.8180421 L102.206003,14.8180421 L102.206003,14.0819596 L104.673669,14.0819596 L104.673669,16.1026813 C104.098115,16.5145369 103.284947,16.8580421 102.253526,16.8580421 C100.451179,16.8580421 99.2543078,15.7854648 99.2543078,14.3641246 C99.2543078,12.7903101 100.716954,11.8842277 102.267606,11.8842277 Z M105.800136,11.9665988 L108.389249,11.9665988 C109.5914,11.9665988 110.568258,12.4538153 110.568258,13.512372 C110.568258,14.3360833 109.968063,14.7689699 109.154894,14.9547431 L110.717867,16.775671 L109.522756,16.775671 L108.102352,15.0984545 L106.824516,15.0984545 L106.824516,16.775671 L105.800136,16.775671 L105.800136,11.9665988 Z M108.313565,14.3501039 C109.038728,14.3501039 109.503395,14.0486606 109.503395,13.5263926 C109.503395,13.0181452 109.058089,12.7359802 108.308284,12.7359802 L106.824516,12.7359802 L106.824516,14.3501039 L108.313565,14.3501039 Z M111.708806,11.9665988 L112.733187,11.9665988 L112.733187,16.775671 L111.708806,16.775671 L111.708806,11.9665988 Z M116.737424,11.8842277 C117.474908,11.8842277 118.240553,12.1103101 118.86891,12.5642277 L118.390162,13.1898978 C117.877971,12.832372 117.448506,12.6325782 116.799027,12.6325782 C115.670801,12.6325782 114.790748,13.3406194 114.790748,14.3711349 C114.790748,15.4016503 115.670801,16.1096916 116.799027,16.1096916 C117.481948,16.1096916 117.932535,15.8958771 118.479927,15.5243308 L118.958675,16.1500009 C118.316237,16.6109287 117.51011,16.8580421 116.737424,16.8580421 C115.186772,16.8580421 113.724125,15.937939 113.724125,14.3641246 C113.724125,12.7903101 115.186772,11.8842277 116.737424,11.8842277 Z M119.162848,14.3711349 C119.162848,13.0111349 120.419562,11.8842277 122.188467,11.8842277 C123.959132,11.8842277 125.215846,13.0111349 125.215846,14.3711349 C125.215846,15.7311349 123.959132,16.8580421 122.188467,16.8580421 C120.419562,16.8580421 119.162848,15.7311349 119.162848,14.3711349 Z M120.227711,14.3711349 C120.227711,15.3385576 121.026798,16.1096916 122.188467,16.1096916 C123.350136,16.1096916 124.149223,15.3385576 124.149223,14.3711349 C124.149223,13.4019596 123.350136,12.6325782 122.188467,12.6325782 C121.026798,12.6325782 120.227711,13.4019596 120.227711,14.3711349 Z M126.000853,11.9665988 L127.025233,11.9665988 L127.025233,16.0062895 L130.066694,16.0062895 L130.066694,16.775671 L126.000853,16.775671 L126.000853,11.9665988 Z M130.543682,15.3876297 L130.543682,11.9665988 L134.875299,11.9665988 L134.875299,12.7359802 L131.568063,12.7359802 L131.568063,13.897939 L134.602482,13.897939 L134.602482,14.6462895 L131.568063,14.6462895 L131.568063,15.3876297 C131.568063,15.8064957 131.766954,16.0062895 132.170018,16.0062895 L134.970344,16.0062895 L134.970344,16.775671 L131.923604,16.775671 C131.048832,16.775671 130.543682,16.2604132 130.543682,15.3876297 Z" id="Path-6" fill="#607477"></path>
                </g>
            </g>
        </g>
    </g>
</svg>