<?xml version="1.0" encoding="UTF-8"?>
<svg width="103px" height="26px" viewBox="0 0 103 26" version="1.1" xmlns="http://www.w3.org/2000/svg" xmlns:xlink="http://www.w3.org/1999/xlink">
    <!-- Generator: sketchtool 63.1 (101010) - https://sketch.com -->
    <title>05EDEB3D-E77C-408F-A2B3-F4D999B2C8DF@svg</title>
    <desc>Created with sketchtool.</desc>
    <g id="Page-1" stroke="none" stroke-width="1" fill="none" fill-rule="evenodd">
        <g id="home-ENG" transform="translate(-279.000000, -1490.000000)" fill="#33629A" fill-rule="nonzero">
            <g id="forbes" transform="translate(279.000000, 1490.000000)">
                <path d="M58.1251256,8.424 C58.1251256,5.408 58.1768844,2.6 58.3321608,-4.80326889e-14 L50.4130653,1.508 L50.4130653,2.236 L51.1894472,2.34 C51.758794,2.392 52.1211055,2.6 52.3281407,2.912 C52.5351759,3.276 52.6904523,3.796 52.7939698,4.576 C52.8974874,6.084 53.001005,9.516 52.9492462,14.924 C52.9492462,20.28 52.8974874,23.66 52.7939698,24.96 C55.6407035,25.584 57.8663317,25.844 59.5226131,25.844 C62.6281407,25.844 65.060804,24.96 66.820603,23.14 C68.580402,21.372 69.5120603,18.876 69.5120603,15.808 C69.5120603,13.364 68.839196,11.336 67.4934673,9.724 C66.1477387,8.112 64.4396985,7.332 62.4211055,7.332 C61.0753769,7.332 59.6778894,7.696 58.1251256,8.424 L58.1251256,8.424 Z M58.280402,24.44 C58.1768844,22.776 58.0733668,17.784 58.0733668,9.62 C58.539196,9.464 59.1603015,9.36 59.9366834,9.36 C61.1788945,9.36 62.1623116,9.984 62.8869347,11.284 C63.6115578,12.584 63.9738693,14.144 63.9738693,16.12 C63.9738693,18.564 63.559799,20.54 62.7316583,22.204 C61.9035176,23.816 60.8683417,24.648 59.5743719,24.648 C59.1603015,24.544 58.7462312,24.492 58.280402,24.44 L58.280402,24.44 Z M20.7035176,0.52 L8.09090371e-14,0.52 L8.09090371e-14,1.56 L1.08693467,1.664 C1.91507538,1.82 2.48442211,2.132 2.84673367,2.6 C3.20904523,3.12 3.4160804,3.952 3.4678392,5.096 C3.88190955,10.712 3.88190955,15.964 3.4678392,20.8 C3.36432161,21.944 3.15728643,22.776 2.84673367,23.296 C2.48442211,23.816 1.91507538,24.128 1.08693467,24.232 L8.09090371e-14,24.388 L8.09090371e-14,25.428 L13.3537688,25.428 L13.3537688,24.388 L11.9562814,24.284 C11.1281407,24.18 10.558794,23.816 10.1964824,23.348 C9.83417085,22.828 9.62713568,21.996 9.57537688,20.852 C9.4201005,18.772 9.31658291,16.38 9.31658291,13.728 L12.1115578,13.78 C13.6125628,13.832 14.6477387,14.976 15.1653266,17.264 L16.2005025,17.264 L16.2005025,8.788 L15.1653266,8.788 C14.6477387,11.024 13.6643216,12.168 12.1115578,12.22 L9.31658291,12.272 C9.31658291,7.592 9.4201005,4.264 9.57537688,2.236 L13.6643216,2.236 C16.5628141,2.236 18.5296482,4.108 19.6683417,7.852 L20.9105528,7.488 L20.7035176,0.52 Z M18.2708543,16.536 C18.2708543,19.24 19.0472362,21.476 20.5482412,23.244 C22.0492462,25.012 24.2748744,25.844 27.0698492,25.844 C29.8648241,25.844 32.1422111,24.96 33.7984925,23.14 C35.4547739,21.372 36.2311558,19.136 36.2311558,16.432 C36.2311558,13.728 35.4547739,11.492 33.9537688,9.724 C32.4527638,7.956 30.2271357,7.124 27.4321608,7.124 C24.6371859,7.124 22.359799,8.008 20.7035176,9.828 C19.0472362,11.596 18.2708543,13.832 18.2708543,16.536 Z M29.8130653,10.608 C30.4341709,12.116 30.6929648,14.092 30.6929648,16.484 C30.6929648,21.996 29.5542714,24.7 27.3286432,24.7 C26.1899497,24.7 25.3100503,23.92 24.6889447,22.36 C24.0678392,20.8 23.8090452,18.824 23.8090452,16.484 C23.8090452,11.024 24.9477387,8.32 27.1733668,8.32 C28.3120603,8.268 29.1919598,9.048 29.8130653,10.608 L29.8130653,10.608 Z M73.5492462,23.244 C75.2572864,24.96 77.4311558,25.844 80.0190955,25.844 C81.6236181,25.844 83.0211055,25.532 84.2633166,24.856 C85.5055276,24.232 86.4889447,23.452 87.161809,22.516 L86.6442211,21.892 C85.5055276,22.776 84.2115578,23.192 82.7105528,23.192 C80.640201,23.192 79.0356784,22.516 77.9487437,21.112 C76.8100503,19.708 76.2924623,17.94 76.3959799,15.652 L87.4723618,15.652 C87.4723618,13.156 86.8512563,11.128 85.5572864,9.516 C84.2633166,7.956 82.4517588,7.176 80.1226131,7.176 C77.2241206,7.176 74.9984925,8.112 73.3939698,9.932 C71.7894472,11.752 71.0130653,13.988 71.0130653,16.64 C71.0130653,19.344 71.841206,21.528 73.5492462,23.244 L73.5492462,23.244 Z M77.379397,10.192 C77.9487437,8.944 78.6733668,8.32 79.6567839,8.32 C81.2095477,8.32 81.9859296,10.296 81.9859296,14.3 L76.4994975,14.404 C76.5512563,12.844 76.8100503,11.44 77.379397,10.192 Z M101.395477,8.112 C99.9979899,7.488 98.238191,7.124 96.1160804,7.124 C93.9422111,7.124 92.2341709,7.696 90.940201,8.788 C89.6462312,9.88 88.9733668,11.232 88.9733668,12.844 C88.9733668,14.248 89.3874372,15.34 90.1638191,16.12 C90.940201,16.9 92.1824121,17.576 93.7869347,18.148 C95.2361809,18.668 96.2713568,19.188 96.7889447,19.656 C97.3065327,20.176 97.6170854,20.748 97.6170854,21.528 C97.6170854,22.256 97.3582915,22.932 96.7889447,23.452 C96.2713568,24.024 95.5467337,24.284 94.6150754,24.284 C92.3376884,24.284 90.6296482,22.62 89.439196,19.292 L88.5592965,19.552 L88.7663317,24.752 C90.6296482,25.48 92.7,25.844 94.9773869,25.844 C97.3582915,25.844 99.1698492,25.324 100.515578,24.232 C101.861307,23.192 102.534171,21.684 102.534171,19.812 C102.534171,18.564 102.223618,17.524 101.550754,16.744 C100.877889,15.964 99.7909548,15.288 98.238191,14.664 C96.5301508,14.04 95.3396985,13.468 94.718593,12.948 C94.0974874,12.428 93.7869347,11.804 93.7869347,11.024 C93.7869347,10.244 93.9939698,9.62 94.459799,9.1 C94.9256281,8.58 95.4949749,8.372 96.219598,8.372 C98.2899497,8.372 99.7909548,9.88 100.722613,12.844 L101.602513,12.584 L101.395477,8.112 Z M51.6035176,7.644 C50.8788945,7.28 50.1025126,7.124 49.2226131,7.124 C48.3427136,7.124 47.4628141,7.488 46.479397,8.216 C45.4959799,8.944 44.7713568,9.932 44.2020101,11.284 L44.2537688,7.124 L36.3864322,8.684 L36.3864322,9.412 L37.1628141,9.464 C38.1462312,9.568 38.7155779,10.348 38.8190955,11.752 C39.1296482,14.976 39.1296482,18.408 38.8190955,22.048 C38.7155779,23.452 38.1462312,24.18 37.1628141,24.336 L36.3864322,24.44 L36.3864322,25.428 L47.3592965,25.428 L47.3592965,24.44 L45.961809,24.336 C44.978392,24.232 44.4090452,23.452 44.3055276,22.048 C43.9949749,19.032 43.9432161,15.808 44.2020101,12.48 C44.5125628,11.96 45.1854271,11.648 46.220603,11.544 C47.2557789,11.44 48.4462312,11.752 49.6884422,12.48 L51.6035176,7.644 Z" id="Shape"></path>
            </g>
        </g>
    </g>
</svg>