<?xml version="1.0" encoding="UTF-8"?>
<svg width="71px" height="21px" viewBox="0 0 71 21" version="1.1" xmlns="http://www.w3.org/2000/svg" xmlns:xlink="http://www.w3.org/1999/xlink">
    <!-- Generator: sketchtool 63.1 (101010) - https://sketch.com -->
    <title>E1C0BD5A-69AD-4081-A4E7-8C56A1ACC0AD@3x</title>
    <desc>Created with sketchtool.</desc>
    <g id="tel-320" stroke="none" stroke-width="1" fill="none" fill-rule="evenodd">
        <g id="320-servies-list-ENG" transform="translate(-22.000000, -657.000000)" fill="#DDC480">
            <g id="ico_services" transform="translate(22.000000, 657.000000)">
                <path d="M59.436049,1.98951966e-14 L48.5577353,10.493 L59.4367451,20.9916 L70.3157549,10.493 L59.4374412,1.98951966e-14 L59.436049,1.98951966e-14 Z M53.5980392,10.493 L59.4367451,4.8636 L65.275451,10.493 L59.4367451,16.1266 L53.5980392,10.493 Z M35.1568333,1.98951966e-14 L24.2785196,10.493 L35.1575294,20.9916 L46.0372353,10.493 L35.1582255,1.98951966e-14 L35.1568333,1.98951966e-14 Z M29.3188235,10.493 L35.1575294,4.8636 L40.9962353,10.493 L35.1575294,16.1266 L29.3188235,10.493 Z M10.8783137,1.98951966e-14 L-5.93512168e-14,10.493 L10.8790098,20.9916 L21.7580196,10.493 L10.8797059,1.98951966e-14 L10.8783137,1.98951966e-14 Z M5.04030392,10.493 L10.8790098,4.8636 L16.7184118,10.493 L10.8790098,16.1266 L5.04030392,10.493 Z" id="Fill-1"></path>
            </g>
        </g>
    </g>
</svg>