<?xml version="1.0" encoding="UTF-8"?>
<svg width="101px" height="26px" viewBox="0 0 101 26" version="1.1" xmlns="http://www.w3.org/2000/svg" xmlns:xlink="http://www.w3.org/1999/xlink">
    <!-- Generator: sketchtool 63.1 (101010) - https://sketch.com -->
    <title>827CE0AA-3080-4F1F-85BC-3C8235991EB2@svg</title>
    <desc>Created with sketchtool.</desc>
    <g id="Page-1" stroke="none" stroke-width="1" fill="none" fill-rule="evenodd">
        <g id="home-ENG" transform="translate(-412.000000, -1489.000000)" fill="#000000" fill-rule="nonzero">
            <g id="interia" transform="translate(412.000000, 1489.000000)">
                <path d="M19.657438,24.9012903 L19.657438,12.4380645 C19.657438,10.2741935 17.4287603,9.08322581 15.4004132,9.50258065 C14.448843,9.70387097 13.1967769,10.2993548 12.9797521,11.18 L12.9797521,24.9012903 L7.42057851,24.9012903 L7.42057851,7.43096774 C9.61887121,5.51181607 12.3852978,4.37400431 15.2919008,4.19354839 C19.9328926,4.03419355 25.2166116,6.29032258 25.2166116,12.1612903 L25.2166116,24.9012903 L19.657438,24.9012903 Z M27.0696694,2.97969534e-14 L27.0696694,21.9154839 C29.2684134,23.8404568 32.0385419,24.9815327 34.9493388,25.1612903 C35.4136595,25.1863628 35.8789851,25.1863628 36.3433058,25.1612903 L36.3433058,19.9109677 C35.508595,19.9109677 33.2882645,19.4412903 32.6371901,18.4348387 L32.6371901,10.0645161 L36.3433058,10.0645161 L36.3433058,4.46193548 L32.6371901,4.46193548 L32.6371901,2.97969534e-14 L27.0696694,2.97969534e-14 Z M57.2027273,16.7741935 L42.1779339,16.7741935 C42.8765603,18.3689254 44.3170541,19.5115218 46.0230085,19.8240979 C47.7289629,20.1366741 49.4781174,19.578506 50.6919835,18.3341935 L50.6919835,18.283871 L56.7603306,18.283871 L56.6768595,18.5019355 C54.717137,23.5234088 49.2759891,26.221339 44.1173914,24.7294024 C38.9587937,23.2374657 35.7776986,18.0458654 36.7746647,12.7459498 C37.7716307,7.44603421 42.6190863,3.77918821 47.9637492,4.28199405 C53.308412,4.7847999 57.3941947,9.29205147 57.3947227,14.6858065 C57.3957089,15.3416002 57.3342163,15.9959837 57.2110744,16.64 L57.2027273,16.7741935 Z M51.6936364,12.4212903 C50.825592,10.6033721 48.9967521,9.44686272 46.9900413,9.44686272 C44.9833305,9.44686272 43.1544906,10.6033721 42.2864463,12.4212903 L51.6936364,12.4212903 Z M75.6581818,4.53741935 C73.6128075,5.058179 71.7155716,6.04866425 70.1157025,7.43096774 L70.1157025,24.9012903 L75.6832231,24.9012903 L75.6832231,4.52064516 L75.6581818,4.53741935 Z M68.2376033,9.46064516 L68.2376033,4.19354839 C67.7732827,4.16847594 67.307957,4.16847594 66.8436364,4.19354839 C63.9370334,4.37400431 61.1706067,5.51181607 58.972314,7.43096774 L58.972314,24.9012903 L64.5314876,24.9012903 L64.5314876,10.9032258 C65.182562,9.89677419 67.3778512,9.46903226 68.2376033,9.43548387 M87.6446281,4.19342199 C93.0150815,4.16723999 97.5238047,8.25070726 98.0534711,13.6206452 L101,24.9012903 L95.6328099,24.9012903 L94.9149587,22.1754839 C91.546287,25.49616 86.3797547,26.1339827 82.311258,23.7314456 C78.2427613,21.3289086 76.2835749,16.4831918 77.5318437,11.910371 C78.7801124,7.33755014 82.9255637,4.17425596 87.6446281,4.19342199 M87.6446281,19.7096774 C90.4106162,19.7096774 92.6528926,17.4566587 92.6528926,14.6774194 C92.6528926,11.89818 90.4106162,9.64516129 87.6446281,9.64516129 C84.87864,9.64516129 82.6363636,11.89818 82.6363636,14.6774194 C82.6363636,17.4566587 84.87864,19.7096774 87.6446281,19.7096774 M5.93097655e-15,4.52064516 L5.93097655e-15,24.9012903 L5.55917355,24.9012903 L5.55917355,7.43096774 C3.95751269,6.03828789 2.05368233,5.04160009 5.93097655e-15,4.52064516" id="Shape"></path>
            </g>
        </g>
    </g>
</svg>