<?xml version="1.0" encoding="UTF-8"?>
<svg width="109px" height="28px" viewBox="0 0 109 28" version="1.1" xmlns="http://www.w3.org/2000/svg" xmlns:xlink="http://www.w3.org/1999/xlink">
    <!-- Generator: sketchtool 63.1 (101010) - https://sketch.com -->
    <title>5D6681FC-29AE-4BA4-B89D-E9894426EC4C@svg</title>
    <desc>Created with sketchtool.</desc>
    <g id="Page-1" stroke="none" stroke-width="1" fill="none" fill-rule="evenodd">
        <g id="home-ENG" transform="translate(-153.000000, -1552.000000)" fill-rule="nonzero">
            <g id="money.pl" transform="translate(153.000000, 1552.000000)">
                <path d="M70.488929,5.93068354 C71.8197291,5.93068354 72.2040488,6.25675949 72.499979,7.56141769 L74.4523379,16.5164557 C74.6888693,17.6431899 75.0434906,17.761924 75.8425362,17.761924 C76.3159532,17.761924 76.7002729,17.6134177 76.9368049,16.5164557 L78.8891639,7.56141769 C79.1850934,6.25675949 79.5697674,5.93068354 80.9005674,5.93068354 L81.5511183,5.93068354 C82.8822719,5.93068354 83.1488566,6.25675949 82.8525728,7.56141769 L79.8356443,20.7568608 C78.7710746,25.4417215 76.3159532,27.0433924 73.4464594,27.458076 C72.0859602,27.6657721 71.7606845,27.4878481 71.4644013,26.0942279 L71.4354094,25.9457215 C71.1394798,24.6708354 71.316613,24.3447595 72.5593772,24.0778734 C74.0086201,23.751443 75.3397737,22.8915949 75.7834916,20.9939747 C75.5172611,21.0829367 74.9847995,21.1123544 74.5704272,21.1123544 C71.9084728,21.1123544 71.2575684,19.3632405 70.6954077,16.9612658 L68.53657,7.56141769 C68.2402862,6.25675949 68.506871,5.93068354 69.8380246,5.93068354 L70.488929,5.93068354 Z M95.1875789,5.84172152 C99.742847,5.84172152 101.665154,8.00622787 101.665154,12.0389367 L101.665154,14.7967595 C101.665154,18.6217721 99.9790255,21.0531646 95.5421995,21.0531646 C93.0577326,21.0531646 91.6374816,20.2230886 90.9278862,18.8588861 L90.9278862,25.7383798 C90.9278862,26.5092658 90.7503988,26.6871899 89.9814058,26.6871899 L89.6561307,26.6871899 C88.8867835,26.6871899 88.7092961,26.5092658 88.7092961,25.7383798 L88.7092961,12.0389367 C88.7092961,8.00622787 90.809797,5.84172152 95.1875789,5.84172152 Z M30.2894961,5.57483544 C35.1406946,5.57483544 37.3292317,7.7691139 37.3292317,12.1576709 L37.3292317,14.5298734 C37.3292317,18.769924 34.9038092,21.1123544 30.2894961,21.1123544 C25.4382975,21.1123544 23.1903623,18.918076 23.1903623,14.5298734 L23.1903623,12.1576709 C23.1903623,7.9172658 25.6751829,5.57483544 30.2894961,5.57483544 Z M61.378038,5.57483544 C65.6964214,5.57483544 67.855613,7.7691139 67.855613,11.9797469 C67.855613,12.2168608 67.855613,12.602481 67.7965684,13.1358988 C67.6190813,14.5001012 67.2347615,14.7669873 65.8739086,14.7669873 L58.3604023,14.7669873 L58.3604023,15.2117975 C58.3604023,16.7535696 59.4847235,17.4652658 62.2354213,17.4652658 C63.7737614,17.4652658 65.2527034,17.168962 65.8145105,17.0502279 C67.1159653,16.7833418 67.3825496,17.1391899 67.3825496,18.4736202 L67.3825496,18.7996962 C67.3825496,20.1341266 67.1159653,20.4010127 65.8145105,20.7270886 C65.2527034,20.8752405 63.8621514,21.1123544 62.2057222,21.1123544 C56.9705574,21.1123544 54.4857369,19.2147342 54.4857369,14.6188354 L54.4857369,12.2466329 C54.4857369,8.4212658 56.2309097,5.57483544 61.378038,5.57483544 Z M105.481128,-2.84650352e-14 C106.250475,-2.84650352e-14 106.427962,0.177924051 106.427962,0.949164556 L106.427962,16.5756456 C106.427962,18.3548861 107.048814,18.8291139 107.93625,18.8291139 L108.084038,18.8291139 C108.793987,18.8291139 109.001173,18.8588861 109.001173,19.6003544 L109.001173,19.8076962 C109.001173,20.5491646 108.853385,20.7862785 108.172782,20.9050127 C107.93625,20.9347848 107.788108,20.9347848 107.64032,20.9347848 C105.747359,20.9347848 104.209019,19.8966582 104.209019,16.9612658 L104.209019,0.949164556 C104.209019,0.177924051 104.386506,-2.84650352e-14 105.155499,-2.84650352e-14 L105.481128,-2.84650352e-14 Z M15.0560044,5.57483544 C19.4044405,5.57483544 21.3267468,7.59118988 21.3267468,11.5647089 L21.3267468,19.096 C21.3267468,20.4304304 21.0014715,20.7568608 19.6703176,20.7568608 L19.1085106,20.7568608 C17.7773567,20.7568608 17.4520814,20.4304304 17.4520814,19.096 L17.4520814,11.5647089 C17.4520814,10.0523544 17.0971071,9.22192402 15.0560044,9.22192402 C12.9261582,9.22192402 12.5418384,10.0523544 12.5418384,11.5647089 L12.5418384,19.096 C12.5418384,20.4304304 12.2165631,20.7568608 10.8854092,20.7568608 L10.4416912,20.7568608 C9.11053734,20.7568608 8.78526199,20.4304304 8.78526199,19.096 L8.78526199,11.5647089 C8.78526199,10.0523544 8.43028769,9.22192402 6.33014051,9.22192402 C4.2596924,9.22192402 3.87501899,10.0523544 3.87501899,11.5647089 L3.87501899,19.096 C3.87501899,20.4304304 3.54939011,20.7568608 2.21858979,20.7568608 L1.65642919,20.7568608 C0.325275316,20.7568608 -9.68114477e-15,20.4304304 -9.68114477e-15,19.096 L-9.68114477e-15,11.5647089 C-9.68114477e-15,7.68015189 2.18889074,5.57483544 6.33014051,5.57483544 C8.40058859,5.57483544 9.85018511,6.22698734 10.707922,7.47245568 C11.5953579,6.22698734 13.0742999,5.57483544 15.0560044,5.57483544 Z M45.9370065,5.57483544 C50.6107179,5.57483544 52.6221214,7.59118988 52.6221214,11.5647089 L52.6221214,19.096 C52.6221214,20.4304304 52.2968461,20.7568608 50.9656922,20.7568608 L50.4035316,20.7568608 C49.0727313,20.7568608 48.747456,20.4304304 48.747456,19.096 L48.747456,11.5647089 C48.747456,10.0523544 48.3627826,9.22192402 45.9370065,9.22192402 C43.5115841,9.22192402 43.0682197,10.0523544 43.0682197,11.5647089 L43.0682197,19.096 C43.0682197,20.4304304 42.7425908,20.7568608 41.411437,20.7568608 L40.8496299,20.7568608 C39.518476,20.7568608 39.1932007,20.4304304 39.1932007,19.096 L39.1932007,11.5647089 C39.1932007,7.68015189 41.470835,5.57483544 45.9370065,5.57483544 Z M95.1875789,7.94703799 C91.7859764,7.94703799 90.9278862,9.37007598 90.9278862,12.0687089 L90.9278862,14.8265317 C90.9278862,17.495038 91.7859764,18.9478481 95.1875789,18.9478481 C98.5891808,18.9478481 99.4172183,17.495038 99.4172183,14.8265317 L99.4172183,12.0687089 C99.4172183,9.37007598 98.6188799,7.94703799 95.1875789,7.94703799 Z M30.2894961,9.22192402 C27.6271883,9.22192402 27.0653813,10.2600507 27.0653813,12.1576709 L27.0653813,14.5298734 C27.0653813,16.4274937 27.6271883,17.4652658 30.2894961,17.4652658 C32.9518038,17.4652658 33.4545663,16.4274937 33.4545663,14.5298734 L33.4545663,12.1576709 C33.4545663,10.2600507 32.9518038,9.22192402 30.2894961,9.22192402 Z M61.2592418,8.92562023 C59.3068828,8.92562023 58.3604023,9.69650633 58.3604023,11.1790886 L58.3604023,11.6238988 L64.1877803,11.6238988 L64.1877803,11.1790886 C64.1877803,9.69650633 63.2116008,8.92562023 61.2592418,8.92562023 Z" id="Combined-Shape" fill="#05357E"></path>
                <path d="M84.5008701,16.5164557 C85.7733334,16.5164557 86.8082039,17.5542279 86.8082039,18.8291139 C86.8082039,20.1043544 85.7733334,21.1421266 84.5008701,21.1421266 C83.2291147,21.1421266 82.1938906,20.1043544 82.1938906,18.8291139 C82.1938906,17.5542279 83.2291147,16.5164557 84.5008701,16.5164557" id="Fill-6" fill="#D83359"></path>
            </g>
        </g>
    </g>
</svg>