<?xml version="1.0" encoding="UTF-8"?>
<svg width="134px" height="24px" viewBox="0 0 134 24" version="1.1" xmlns="http://www.w3.org/2000/svg" xmlns:xlink="http://www.w3.org/1999/xlink">
    <!-- Generator: sketchtool 63.1 (101010) - https://sketch.com -->
    <title>C8F5EF28-203A-4DC8-BADF-B4C8EDF13545@svg</title>
    <desc>Created with sketchtool.</desc>
    <g id="tel-320" stroke="none" stroke-width="1" fill="none" fill-rule="evenodd">
        <g id="320-home-ENG" transform="translate(-163.000000, -1039.000000)" fill="#005BFF" fill-rule="nonzero">
            <g id="Group" transform="translate(22.000000, 971.000000)">
                <g id="morizon" transform="translate(141.000000, 68.000000)">
                    <path d="M11.8527233,6.23891183e-15 C18.4213508,6.23891183e-15 23.7346405,5.32682927 23.7346405,11.8829268 C23.7346405,18.4390244 18.3921569,23.7658537 11.8527233,23.7658537 C5.31328976,23.7658537 -2.48922161e-14,18.4390244 -2.48922161e-14,11.8829268 C-2.48922161e-14,5.32682927 5.31328976,6.23891183e-15 11.8527233,6.23891183e-15 Z M123.51939,5.32682927 C127.197821,5.32682927 129.912854,7.9902439 129.912854,11.8829268 C129.912854,15.7756098 127.168627,18.4390244 123.51939,18.4390244 C121.913725,18.4390244 120.483224,17.9121951 119.40305,17.0341463 L119.40305,17.0341463 L119.40305,23.7658537 L117.125926,23.7658537 L117.125926,11.8829268 C117.125926,7.9902439 119.870153,5.32682927 123.51939,5.32682927 Z M14.2466231,10.302439 C13.3124183,10.302439 12.4657952,10.7414634 11.8819172,11.3853659 C11.2980392,10.7121951 10.4514161,10.302439 9.51721133,10.302439 C7.76557734,10.302439 6.36427015,11.7073171 6.36427015,13.4634146 L6.36427015,13.4634146 L6.36427015,19.0243902 L7.94074074,19.0243902 L7.94074074,13.4634146 C7.94074074,12.5853659 8.64139434,11.8829268 9.51721133,11.8829268 C10.3930283,11.8829268 11.0936819,12.5853659 11.0936819,13.4634146 L11.0936819,13.4634146 L11.0936819,19.0243902 L12.6701525,19.0243902 L12.6701525,13.4634146 C12.6701525,12.5853659 13.3708061,11.8829268 14.2466231,11.8829268 C15.1224401,11.8829268 15.8230937,12.5853659 15.8230937,13.4634146 L15.8230937,13.4634146 L15.8230937,19.0243902 L17.3995643,19.0243902 L17.3995643,13.4634146 C17.3995643,11.7073171 15.9982571,10.302439 14.2466231,10.302439 Z M91.6688453,5.32682927 C95.4056645,5.32682927 98.2082789,7.9902439 98.2082789,11.8829268 C98.2082789,15.7756098 95.4056645,18.4390244 91.6688453,18.4390244 C87.9320261,18.4390244 85.1294118,15.7756098 85.1294118,11.8829268 C85.1294118,7.9902439 87.9320261,5.32682927 91.6688453,5.32682927 Z M113.56427,14.5756098 C114.615251,14.5756098 115.491068,15.4536585 115.491068,16.5073171 C115.491068,17.5609756 114.615251,18.4390244 113.56427,18.4390244 C112.51329,18.4390244 111.637473,17.5609756 111.637473,16.5073171 C111.637473,15.4536585 112.51329,14.5756098 113.56427,14.5756098 Z M55.0888889,5.32682927 C58.854902,5.32682927 61.6575163,7.9902439 61.6283224,11.8829268 C61.6283224,15.7756098 58.8257081,18.4390244 55.0888889,18.4390244 C51.3520697,18.4390244 48.5494553,15.7756098 48.5494553,11.8829268 C48.5494553,7.9902439 51.3520697,5.32682927 55.0888889,5.32682927 Z M104.776906,5.32682927 C107.667102,5.32682927 110.031808,7.28780488 110.031808,9.71707317 L110.031808,9.71707317 L109.97342,9.71707317 L109.97342,18.2341463 L107.696296,18.2341463 L107.696296,10.3609756 C107.696296,8.72195122 106.382571,7.40487805 104.747712,7.40487805 C103.112854,7.40487805 101.799129,8.72195122 101.799129,10.3609756 L101.799129,10.3609756 L101.799129,18.2341463 L99.5220044,18.2341463 L99.5220044,9.71707317 C99.5220044,7.28780488 101.88671,5.32682927 104.776906,5.32682927 Z M42.5938998,5.29756098 C45.162963,5.29756098 47.2649237,7.05365854 47.2649237,9.2195122 L47.2649237,9.2195122 L47.2649237,18.2341463 L44.9877996,18.2341463 L44.9877996,9.80487805 C44.9877996,8.48780488 43.9076253,7.40487805 42.5938998,7.40487805 C41.2801743,7.40487805 40.2,8.48780488 40.2,9.80487805 L40.2,9.80487805 L40.2,18.2341463 L37.9228758,18.2341463 L37.9228758,9.80487805 C37.9228758,8.48780488 36.8427015,7.40487805 35.528976,7.40487805 C34.2152505,7.40487805 33.1350763,8.48780488 33.1350763,9.80487805 L33.1350763,9.80487805 L33.1350763,18.2341463 L30.8579521,18.2341463 L30.8579521,9.2195122 C30.8579521,7.05365854 32.930719,5.29756098 35.528976,5.29756098 C37.1346405,5.29756098 38.3607843,6 39.0614379,7.02439024 C39.7620915,5.97073171 40.9882353,5.29756098 42.5938998,5.29756098 Z M68.2261438,5.53170732 L68.2261438,7.81463415 C66.9124183,7.81463415 65.832244,8.69268293 65.832244,10.0097561 L65.832244,10.0097561 L65.832244,18.2341463 L63.5551198,18.2341463 L63.5551198,9.45365854 C63.5551198,7.28780488 65.6278867,5.53170732 68.2261438,5.53170732 L68.2261438,5.53170732 Z M72.8095861,5.53170732 L72.8095861,18.2341463 L70.5324619,18.2341463 L70.5324619,5.53170732 L72.8095861,5.53170732 Z M82.151634,5.53170732 C83.2026144,5.53170732 84.0784314,6.4097561 84.0784314,7.46341463 C84.0784314,7.90243902 83.9324619,8.34146341 83.6697168,8.66341463 L77.3930283,16.1560976 L84.2827887,16.1560976 L84.2827887,18.2341463 L76.8091503,18.2341463 C75.7581699,18.2341463 74.8823529,17.3560976 74.8823529,16.302439 C74.8823529,15.8341463 75.0575163,15.395122 75.3494553,15.0439024 L81.567756,7.6097561 L75.4078431,7.6097561 L75.4078431,5.53170732 L82.151634,5.53170732 Z M133.912418,6.23891183e-15 L133.912418,18.2341463 L131.635294,18.2341463 L131.635294,6.23891183e-15 L133.912418,6.23891183e-15 Z M91.6688453,7.40487805 C89.3333333,7.40487805 87.4065359,8.89756098 87.4065359,11.8829268 C87.4065359,14.8682927 89.3333333,16.3609756 91.6688453,16.3609756 C93.9751634,16.3609756 95.9019608,14.897561 95.9311547,11.8829268 C95.9311547,8.89756098 94.0043573,7.40487805 91.6688453,7.40487805 Z M55.0888889,7.40487805 C52.7533769,7.40487805 50.8265795,8.89756098 50.8265795,11.8829268 C50.8265795,14.8682927 52.7533769,16.3609756 55.0888889,16.3609756 C57.4244009,16.3609756 59.3511983,14.897561 59.3511983,11.8829268 C59.3511983,8.89756098 57.4244009,7.40487805 55.0888889,7.40487805 Z M123.51939,7.40487805 C121.27146,7.40487805 119.40305,8.89756098 119.40305,11.8829268 C119.40305,14.8682927 121.27146,16.3609756 123.51939,16.3609756 C125.796514,16.3609756 127.694118,14.897561 127.664924,11.8829268 C127.664924,8.89756098 125.796514,7.40487805 123.51939,7.40487805 Z M11.8819172,4.59512195 C11.7067538,4.59512195 11.5315904,4.65365854 11.4148148,4.74146341 L11.4148148,4.74146341 L3.06535948,10.595122 L3.97037037,11.8829268 L11.8527233,6.32195122 L19.7642702,11.8829268 L20.6984749,10.595122 L12.3490196,4.74146341 C12.2030501,4.65365854 12.0570806,4.59512195 11.8819172,4.59512195 Z M7.91154684,5.15121951 L6.33507625,5.15121951 L6.33507625,7.14146341 L7.91154684,6.02926829 L7.91154684,5.15121951 Z M71.671024,6.68300104e-15 C72.7220044,6.68300104e-15 73.5978214,0.87804878 73.5978214,1.93170732 C73.5978214,2.98536585 72.7220044,3.86341463 71.671024,3.86341463 C70.6200436,3.86341463 69.7442266,2.98536585 69.7442266,1.93170732 C69.7442266,0.848780488 70.5908497,6.68300104e-15 71.671024,6.68300104e-15 Z" id="Combined-Shape"></path>
                </g>
            </g>
        </g>
    </g>
</svg>