<?xml version="1.0" encoding="UTF-8"?>
<svg width="90px" height="29px" viewBox="0 0 90 29" version="1.1" xmlns="http://www.w3.org/2000/svg" xmlns:xlink="http://www.w3.org/1999/xlink">
    <!-- Generator: sketchtool 63.1 (101010) - https://sketch.com -->
    <title>BD870259-348E-4942-B027-7422138B7BAD@svg</title>
    <desc>Created with sketchtool.</desc>
    <g id="Page-1" stroke="none" stroke-width="1" fill="none" fill-rule="evenodd">
        <g id="home-ENG" transform="translate(-150.000000, -1491.000000)" fill-rule="nonzero">
            <g id="onet" transform="translate(150.000000, 1491.000000)">
                <g>
                    <path d="M41.2772727,21.427013 C37.1898037,21.3915805 33.9016649,18.0554571 33.9253221,13.9679036 C33.9492357,9.88035021 37.2759762,6.5827187 41.3635808,6.59482338 C45.4511854,6.60699486 48.7582829,9.92432545 48.7577922,14.0119481 C48.7747994,15.9951117 47.9899957,17.9010562 46.581487,19.2972405 C45.1729783,20.6934247 43.2602103,21.4614481 41.2772727,21.427013 M41.2772727,10.2062338 C39.7336457,10.1905977 38.3332976,11.1084204 37.7317112,12.5300823 C37.1301247,13.9517443 37.4463358,15.5959413 38.5323305,16.6930485 C39.6183253,17.7901558 41.259218,18.1230887 42.6869305,17.5360063 C44.1146431,16.9489238 45.0466741,15.557992 45.0467532,14.0142857 C45.0909421,12.9981819 44.7093346,12.0096908 43.9938317,11.2868665 C43.2783287,10.5640421 42.2937737,10.1723913 41.2772727,10.2062338 M59.864026,21.038961 L59.864026,12.8676623 C59.9478551,12.1119133 59.6908802,11.358074 59.162895,10.8108853 C58.6349099,10.2636966 57.8907281,9.97996568 57.1324675,10.0367532 C55.8295164,10.0448144 54.6472013,10.8010414 54.0935065,11.9805195 L54.0935065,21.038961 L50.3824675,21.038961 L50.3824675,7.01298701 L53.6283117,7.01298701 L53.6283117,8.45064935 C54.8108551,7.18223137 56.4948645,6.50331961 58.2264935,6.59688312 C59.6454918,6.56348772 61.0169559,7.10911941 62.0251948,8.10818182 C63.0896223,9.28604896 63.6461745,10.8364143 63.5738961,12.4223377 L63.5738961,21.038961 L59.864026,21.038961 Z M87.4612987,21.2844156 C86.1264304,21.3907113 84.8047213,20.957019 83.7923377,20.0805195 C82.9402003,19.1101371 82.5183988,17.8354528 82.6235065,16.5483117 L82.6235065,10.5124675 L80.2987013,10.5124675 L80.2987013,7.01298701 L82.6176623,7.01298701 L82.6176623,3.74025974 L86.3275325,2.86246753 L86.3275325,7.01298701 L90,7.01298701 L90,10.5194805 L86.3298701,10.5194805 L86.3298701,16.5974026 C86.3298701,17.1467532 86.6477922,17.8468831 88.1602597,17.8468831 C88.8241558,17.8468831 89.9625974,17.7077922 89.9625974,17.7077922 L89.9625974,20.9992208 C89.1404573,21.1780994 88.3025715,21.2748087 87.4612987,21.2879221 M72.9350649,21.427013 C68.3824675,21.427013 65.2032468,18.3775325 65.2032468,14.0107792 C65.1560266,11.3726773 66.5364096,8.9145098 68.8135277,7.5816391 C71.0906459,6.2487684 73.9098736,6.2487684 76.1869917,7.5816391 C78.4641099,8.9145098 79.8444929,11.3726773 79.7972727,14.0107792 C79.795384,14.5104046 79.7480461,15.0088223 79.6558442,15.4998701 L79.6488312,15.5361039 L69.0919481,15.5361039 C69.6124809,17.2074757 71.2487667,18.2718224 72.9876623,18.0701299 C74.0971723,18.1081581 75.170701,17.6735638 75.9412987,16.8744156 L78.9802597,18.5587013 C77.5621133,20.4589453 75.2943891,21.5328309 72.9257143,21.4258442 M76.0663636,12.6525974 C75.7603655,11.0206227 74.304338,9.85958119 72.6451948,9.92454545 C70.9288031,9.80802134 69.3875407,10.9703174 69.0276623,12.6525974 L76.0663636,12.6525974 L76.0663636,12.6525974 Z" id="Shape" fill="#000000"></path>
                    <path d="M28.1888712,14.025974 C28.2166241,19.7330356 24.8002637,24.8936873 19.5356195,27.0970604 C14.2709753,29.3004335 8.19721635,28.1116121 4.15178186,24.0859704 C0.10634738,20.0603286 -1.11224893,13.9924734 1.0652768,8.71708591 C3.24280252,3.4416984 8.38663634,-4.38896815e-05 14.0937662,-4.38896815e-05 C17.8228812,-0.00931114974 21.402942,1.46323004 24.0462912,4.09364636 C26.6896404,6.72406268 28.1797226,10.2968583 28.1888712,14.025974" id="Path" fill="#FFD200"></path>
                </g>
            </g>
        </g>
    </g>
</svg>