<?xml version="1.0" encoding="UTF-8"?>
<svg width="112px" height="23px" viewBox="0 0 112 23" version="1.1" xmlns="http://www.w3.org/2000/svg" xmlns:xlink="http://www.w3.org/1999/xlink">
    <!-- Generator: sketchtool 63.1 (101010) - https://sketch.com -->
    <title>ACB0E587-7879-489F-892F-C0EFE476E71D@svg</title>
    <desc>Created with sketchtool.</desc>
    <g id="tel-320" stroke="none" stroke-width="1" fill="none" fill-rule="evenodd">
        <g id="320-home-ENG" transform="translate(-22.000000, -971.000000)" fill="#000000" fill-rule="nonzero">
            <g id="Group" transform="translate(22.000000, 971.000000)">
                <g id="oponeo">
                    <path d="M27.7413233,0 C32.5093633,0 36.9558052,2.94121212 36.9418556,8.89333333 C36.9418556,13.5490909 33.9915106,17.8424242 28.6921348,17.8424242 C27.3637953,17.8424242 25.7278402,17.2151515 24.4694132,16.3927273 L24.4694132,16.3927273 L24.4694132,23 L20.1348315,23 L20.1348315,1.88181818 C22.6516854,0.599393939 25.3922597,0 27.7413233,0 Z M9.28439451,0 C14.4579276,0 18.3590512,4.09818182 18.3730337,8.99090909 C18.3730337,13.8836364 14.3181024,17.8842424 9.18651685,17.8842424 C4.01298377,17.8842424 1.58962869e-14,13.9533333 1.58962869e-14,8.99090909 C1.58962869e-14,4.00060606 4.01298377,0 9.28439451,0 Z M47.6104869,0 C52.78402,0 56.6991261,4.09818182 56.6991261,8.99090909 C56.6991261,13.8836364 52.6441948,17.8842424 47.5126092,17.8842424 C42.3390762,17.8842424 38.3260924,13.9533333 38.3260924,8.99090909 C38.3260924,4.00060606 42.3390762,0 47.6104869,0 Z M83.9650437,0 C89.4741573,0 92.144819,4.16787879 92.144819,8.92121212 L92.144819,8.92121212 L92.144819,10.4545455 L79.336829,10.4545455 C79.8122347,13.6606061 82.6506866,14.3854545 85.3073658,14.3854545 C87.8941323,14.3854545 89.7118602,13.3957576 90.3410737,12.7963636 L90.3410737,12.7963636 L91.5995006,15.8072727 C90.7046192,16.56 88.1038702,17.8842424 84.3285893,17.8842424 C78.721598,17.8842424 74.9323346,14.4133333 74.9323346,8.99090909 C74.9323346,3.83333333 78.693633,0 83.9650437,0 Z M102.785518,0 C107.945069,0 111.860175,4.09818182 111.874157,8.99090909 C111.874157,13.8836364 107.819226,17.8842424 102.68764,17.8842424 C97.5141074,17.8842424 93.5011236,13.9533333 93.5011236,8.99090909 C93.5011236,4.00060606 97.5141074,0 102.785518,0 Z M67.8571785,0 C71.4646692,0 73.4082397,1.85393939 73.4082397,6.07757576 L73.4082397,6.07757576 L73.4082397,17.2848485 L69.0736579,17.2848485 L69.0736579,8.36363636 C69.0736579,5.58969697 68.7240949,3.80545455 66.1093633,3.80545455 C64.6132335,3.80545455 63.0611735,4.99030303 62.5018727,5.68727273 L62.5018727,5.68727273 L62.5018727,17.2848485 L58.1672909,17.2848485 L58.1672909,0.696969697 L62.5018727,0.696969697 L62.5018727,2.21636364 C63.4806492,1.42181818 65.270412,0 67.8571785,0 Z M9.28439451,3.49878788 C6.57178527,3.49878788 4.5443196,5.78484848 4.5443196,9.08848485 C4.5443196,12.2248485 6.75355805,14.5109091 9.14456929,14.5109091 C11.9270911,14.5109091 13.7867665,12.2945455 13.7867665,8.99090909 C13.7867665,5.78484848 11.7313358,3.49878788 9.28439451,3.49878788 Z M47.6244694,3.49878788 C44.9118602,3.49878788 42.8843945,5.78484848 42.8843945,9.08848485 C42.8843945,12.2248485 45.093633,14.5109091 47.4846442,14.5109091 C50.267166,14.5109091 52.1268414,12.2945455 52.1268414,8.99090909 C52.1268414,5.78484848 50.0714107,3.49878788 47.6244694,3.49878788 Z M102.771536,3.49878788 C100.058926,3.49878788 98.0314607,5.78484848 98.0314607,9.08848485 C98.0314607,12.2248485 100.254682,14.5109091 102.645693,14.5109091 C105.428215,14.5109091 107.28789,12.2945455 107.273986,8.99090909 C107.273986,5.78484848 105.218477,3.49878788 102.771536,3.49878788 Z M27.4057428,3.61030303 C26.4129838,3.61030303 25.1685393,3.83333333 24.4694132,4.26545455 L24.4694132,4.26545455 L24.4694132,12.3642424 C25.7278402,13.9812121 26.9443196,14.2739394 28.3705368,14.2739394 C30.5238452,14.2739394 32.341573,12.1551515 32.341573,8.93515152 C32.341573,5.89636364 30.5238452,3.61030303 27.4057428,3.61030303 Z M84.0489388,3.28969697 C81.5600499,3.28969697 79.8401998,4.87878788 79.336829,7.24848485 L79.336829,7.24848485 L87.8941323,7.24848485 C87.8661673,5.15757576 86.3980025,3.28969697 84.0489388,3.28969697 Z" id="Combined-Shape"></path>
                </g>
            </g>
        </g>
    </g>
</svg>