<?xml version="1.0" encoding="UTF-8"?>
<svg width="172px" height="26px" viewBox="0 0 172 26" version="1.1" xmlns="http://www.w3.org/2000/svg" xmlns:xlink="http://www.w3.org/1999/xlink">
    <!-- Generator: sketchtool 63.1 (101010) - https://sketch.com -->
    <title>E266DC45-0078-4044-ACA4-9167B550D629@svg</title>
    <desc>Created with sketchtool.</desc>
    <g id="Page-1" stroke="none" stroke-width="1" fill="none" fill-rule="evenodd">
        <g id="home-ENG" transform="translate(-468.000000, -1552.000000)" fill="#000000" fill-rule="nonzero">
            <g id="rp" transform="translate(467.000000, 1552.000000)">
                <g>
                    <path d="M52.3739726,8.03636364 L53.5589041,8.50909091 L53.5589041,8.39090909 L52.3739726,7.91818182 L52.3739726,8.03636364 Z M159.84726,8.39090909 L159.965753,8.50909091 L160.558219,7.32727273 L160.439726,7.20909091 L159.84726,8.39090909 Z M71.8068493,20.2090909 L71.9253425,20.2090909 L72.8732877,19.3818182 L72.7547945,19.2636364 L71.8068493,20.2090909 Z M88.3958904,16.3090909 C89.4623288,16.0727273 90.6472603,15.7181818 91.4767123,14.8909091 C92.3061644,14.0636364 92.8986301,12.5272727 92.780137,11.3454545 C92.780137,10.1636364 92.3061644,9.1 91.239726,8.62727273 C90.2917808,8.15454545 89.2253425,8.15454545 88.2773973,8.15454545 C87.3294521,8.15454545 86.5,8.27272727 85.5520548,8.27272727 L83.3006849,8.27272727 C83.1821918,8.27272727 82.8267123,8.15454545 82.8267123,8.15454545 L83.0636986,8.27272727 C83.1821918,8.27272727 83.1821918,8.39090909 83.1821918,8.39090909 C83.4191781,8.50909091 83.4191781,8.62727273 83.5376712,8.86363636 C83.8931507,9.45454545 84.0116438,10.0454545 84.0116438,10.6363636 L84.0116438,15.0090909 C84.0116438,16.4272727 84.0116438,17.9636364 83.8931507,19.3818182 L83.8931507,21.1545455 C84.0116438,21.7454545 84.4856164,21.6272727 84.959589,21.6272727 L87.3294521,21.6272727 L87.2109589,21.6272727 C87.2109589,21.6272727 86.9739726,21.6272727 86.8554795,21.5090909 C86.6184932,21.2727273 86.3815068,21.0363636 86.3815068,20.6818182 C86.2630137,20.2090909 86.3815068,19.6181818 86.3815068,19.1454545 L86.3815068,9.80909091 C86.3815068,9.57272727 86.2630137,9.33636364 86.5,9.21818182 C86.6184932,9.1 86.8554795,9.1 86.9739726,9.1 C87.4479452,8.98181818 87.9219178,8.98181818 88.3958904,8.98181818 C89.3438356,9.1 90.0547945,10.0454545 90.2917808,10.9909091 C90.5287671,11.9363636 90.410274,13.4727273 89.8178082,14.1818182 C89.2253425,14.8909091 88.7513699,15.2454545 87.9219178,15.3636364 C87.6849315,15.3636364 87.6849315,15.3636364 87.4479452,15.4818182 C87.3294521,15.4818182 87.2109589,15.6 87.2109589,15.7181818 C86.9739726,15.9545455 86.7369863,16.3090909 86.6184932,16.5454545 C87.4479452,16.4272727 87.8034247,16.3090909 88.3958904,16.3090909" id="Shape"></path>
                    <path d="M82.589726,8.03636364 L83.7746575,8.50909091 L82.589726,7.91818182 L82.589726,8.03636364 Z M82.2342466,19.0272727 L82.3527397,19.0272727 L82.4712329,17.7272727 L82.4712329,17.6090909 L82.2342466,19.0272727 Z" id="Shape"></path>
                    <path d="M82.4712329,18.2 C82.4712329,18.2 82.3527397,18.0818182 82.4712329,18.2 C82.3527397,18.0818182 82.3527397,18.2 82.4712329,18.2 C82.1157534,19.2636364 81.2863014,19.9727273 80.4568493,20.4454545 C79.7458904,20.8 79.0349315,20.8 78.2054795,20.8 C77.4945205,20.8 76.7835616,20.6818182 75.9541096,20.5636364 C75.7171233,20.4454545 75.9541096,20.2090909 76.0726027,20.0909091 C76.1910959,19.8545455 76.309589,19.6181818 76.5465753,19.3818182 C76.7835616,19.0272727 77.0205479,18.6727273 77.1390411,18.2 C77.4945205,17.4909091 77.9684932,16.6636364 78.3239726,15.9545455 C79.1534247,14.3 80.1013699,12.7636364 80.9308219,11.1090909 C81.2863014,10.5181818 81.5232877,9.92727273 81.8787671,9.33636364 C81.9972603,9.1 82.2342466,8.74545455 82.2342466,8.50909091 C82.2342466,8.27272727 81.9972603,8.27272727 81.8787671,8.27272727 L74.2952055,8.27272727 C74.0582192,8.27272727 73.7027397,8.27272727 73.5842466,8.50909091 C73.3472603,8.62727273 73.4657534,8.86363636 73.4657534,9.1 L73.4657534,11.1090909 C73.4657534,10.9909091 73.5842466,10.7545455 73.5842466,10.7545455 C73.7027397,10.5181818 73.8212329,10.4 73.8212329,10.4 C74.0582192,10.1636364 74.0582192,10.0454545 74.5321918,9.69090909 C75.3616438,8.98181818 76.309589,8.86363636 77.3760274,8.86363636 L78.6794521,8.86363636 C78.7979452,8.86363636 79.0349315,8.86363636 79.1534247,8.98181818 C79.390411,9.1 79.1534247,9.33636364 79.0349315,9.45454545 C78.4424658,10.5181818 77.85,11.7 77.2575342,12.7636364 C75.8356164,15.2454545 74.5321918,17.8454545 73.110274,20.3272727 C72.9917808,20.5636364 72.7547945,20.9181818 72.7547945,21.1545455 L72.7547945,21.5090909 L81.6417808,21.5090909 C81.8787671,21.3909091 81.8787671,21.1545455 81.9972603,21.0363636 L82.3527397,19.6181818 C82.2342466,19.1454545 82.3527397,18.6727273 82.4712329,18.2 M73.4657534,11.7 L73.4657534,10.4 L73.4657534,11.7 Z M99.7712329,21.2727273 C99.2972603,21.3909091 98.8232877,21.2727273 98.3493151,21.1545455 C97.9938356,21.0363636 97.6383562,20.8 97.4013699,20.5636364 C96.8089041,19.9727273 96.3349315,19.2636364 96.0979452,18.4363636 C95.3869863,16.6636364 95.2684932,14.6545455 95.5054795,12.8818182 C95.6239726,11.7 95.9794521,10.6363636 96.8089041,9.80909091 C97.519863,9.1 98.5863014,8.74545455 99.5342466,8.86363636 C101.311644,9.1 102.141096,10.8727273 102.615068,12.5272727 C103.089041,14.1818182 103.207534,15.9545455 102.970548,17.6090909 C102.733562,19.2636364 101.90411,20.9181818 100.245205,21.2727273 L99.7712329,21.2727273 M101.90411,8.62727273 C100.126712,7.8 97.8753425,7.91818182 96.0979452,8.74545455 C94.2020548,9.80909091 93.0171233,11.8181818 92.8986301,14.0636364 C92.6616438,16.3090909 93.3726027,18.9090909 94.9130137,20.5636364 C96.5719178,22.2181818 99.2972603,22.5727273 101.430137,21.7454545 C105.69589,19.9727273 106.525342,13.4727273 103.563014,9.92727273 C103.207534,9.33636364 102.615068,8.86363636 101.90411,8.62727273 M131.64589,21.2727273 C131.171918,21.3909091 130.697945,21.2727273 130.223973,21.1545455 C129.868493,21.0363636 129.513014,20.8 129.276027,20.5636364 C128.683562,19.9727273 128.209589,19.2636364 127.972603,18.4363636 C127.261644,16.6636364 127.143151,14.6545455 127.380137,12.8818182 C127.49863,11.7 127.85411,10.6363636 128.683562,9.80909091 C129.394521,9.1 130.460959,8.74545455 131.408904,8.86363636 C133.186301,9.1 134.015753,10.8727273 134.489726,12.5272727 C134.963699,14.1818182 135.082192,15.9545455 134.845205,17.6090909 C134.608219,19.2636364 133.778767,20.9181818 132.119863,21.2727273 L131.64589,21.2727273 M133.89726,8.62727273 C132.119863,7.8 129.868493,7.91818182 128.091096,8.74545455 C126.195205,9.80909091 125.010274,11.8181818 124.891781,14.0636364 C124.654795,16.3090909 125.365753,18.9090909 126.906164,20.5636364 C128.565068,22.2181818 131.290411,22.5727273 133.423288,21.7454545 C137.689041,19.9727273 138.518493,13.4727273 135.674658,9.92727273 C135.082192,9.33636364 134.489726,8.86363636 133.89726,8.62727273 M136.741096,8.03636364 L137.926027,8.39090909 L136.741096,7.91818182 L136.741096,8.03636364 Z M145.983562,18.9090909 L146.220548,17.7272727 L146.102055,17.7272727 L145.983562,18.9090909 Z" id="Shape"></path>
                    <path d="M146.102055,18.0818182 C146.102055,18.2 146.102055,18.2 145.983562,18.3181818 C145.509589,19.5 144.561644,20.5636364 143.258219,20.6818182 C142.784247,20.8 142.310274,20.8 141.836301,20.6818182 C141.480822,20.6818182 141.006849,20.5636364 140.769863,20.2090909 C140.65137,19.8545455 140.65137,19.5 140.65137,19.1454545 L140.65137,13.3545455 C140.65137,11.9363636 140.65137,10.5181818 140.769863,9.1 C140.769863,8.86363636 140.769863,8.50909091 140.65137,8.27272727 C140.532877,8.15454545 140.414384,8.15454545 140.177397,8.15454545 L137.215068,8.15454545 C137.215068,8.15454545 136.978082,8.15454545 136.978082,8.03636364 C137.215068,8.15454545 137.570548,8.39090909 137.807534,8.50909091 C138.163014,8.86363636 138.281507,9.33636364 138.4,9.80909091 C138.518493,10.4 138.4,10.9909091 138.4,11.5818182 L138.4,13.4727273 C138.4,15.9545455 138.4,18.4363636 138.281507,20.9181818 C138.281507,21.0363636 138.4,21.2727273 138.518493,21.2727273 C138.636986,21.3909091 138.873973,21.3909091 138.992466,21.3909091 L145.035616,21.3909091 C145.391096,21.3909091 145.509589,21.1545455 145.509589,20.8 C145.746575,20.5636364 146.102055,18.6727273 146.102055,18.0818182 M160.795205,23.1636364 L161.861644,23.1636364 L161.861644,23.2818182 L160.795205,23.2818182 L160.795205,23.1636364 Z" id="Shape"></path>
                    <path d="M172.170548,23.1636364 C171.578082,23.0454545 170.985616,22.4545455 170.393151,21.0363636 C169.563699,18.9090909 165.771918,8.98181818 165.179452,7.44545455 C165.060959,7.32727273 164.942466,7.32727273 164.942466,7.32727273 L163.994521,6.97272727 C163.994521,6.97272727 163.876027,7.32727273 163.639041,7.8 L163.520548,8.27272727 C162.45411,10.6363636 158.188356,20.8 158.188356,20.8 C157.714384,21.8636364 157.477397,23.0454545 158.425342,23.2818182 L161.624658,23.2818182 L161.269178,23.2818182 C160.676712,23.1636364 159.84726,22.5727273 159.84726,21.8636364 C159.84726,21.6272727 159.965753,21.2727273 159.965753,21.0363636 C160.439726,19.7363636 160.439726,19.7363636 164.231507,9.92727273 L165.653425,14.4181818 C165.890411,14.8909091 165.060959,14.8909091 164.823973,14.8909091 L163.520548,14.8909091 C163.283562,15.1272727 161.980137,16.0727273 161.980137,16.0727273 L166.364384,16.0727273 L168.615753,22.5727273 C168.734247,22.9272727 168.85274,23.1636364 169.682192,23.1636364 L172.644521,23.1636364 C172.526027,23.2818182 172.526027,23.1636364 172.170548,23.1636364" id="Path"></path>
                    <path d="M171.696575,23.1636364 L173,23.1636364 L173,23.2818182 L171.696575,23.2818182 L171.696575,23.1636364 Z M163.520548,6.73636364 L164.705479,7.20909091 L164.705479,7.09090909 L163.520548,6.73636364 Z M43.7239726,23.1636364 C43.0130137,23.0454545 42.7760274,22.8090909 42.5390411,22.4545455 C42.1835616,21.9818182 41.9465753,21.1545455 41.5910959,20.3272727 C41.3541096,19.5 41.1171233,18.6727273 40.880137,17.6090909 C40.1691781,14.8909091 37.5623288,14.1818182 37.5623288,14.1818182 C39.2212329,13.8272727 40.880137,13 41.2356164,11.2272727 C41.3541096,10.5181818 41.4726027,9.69090909 41.1171233,8.86363636 C40.4061644,7.09090909 38.0363014,6.85454545 36.4958904,6.97272727 L34.9554795,6.97272727 C32.5856164,7.20909091 31.1636986,7.09090909 30.4527397,7.09090909 C29.9787671,7.09090909 29.7417808,6.97272727 29.7417808,6.97272727 C29.7417808,6.97272727 31.4006849,7.56363636 31.4006849,8.74545455 L31.4006849,14.8909091 C31.4006849,16.3090909 31.2821918,21.0363636 31.1636986,22.2181818 C31.0452055,23.2818182 32.1116438,23.1636364 32.1116438,23.1636364 L35.4294521,23.1636364 C35.3109589,23.1636364 35.4294521,23.1636364 35.3109589,23.0454545 C34.9554795,23.0454545 34.8369863,22.9272727 34.7184932,22.9272727 C34.3630137,22.8090909 34.1260274,22.5727273 33.8890411,22.2181818 C33.6520548,21.7454545 33.6520548,21.2727273 33.6520548,20.6818182 L33.6520548,8.03636364 C33.6520548,7.91818182 33.6520548,7.91818182 33.7705479,7.8 C34.4815068,7.56363636 35.1924658,7.44545455 35.9034247,7.44545455 L36.4958904,7.44545455 C37.9178082,7.68181818 39.1027397,9.1 38.8657534,10.9909091 C38.6287671,12.7636364 37.4438356,13.1181818 36.4958904,13.3545455 L36.0219178,13.3545455 C35.7849315,13.3545455 35.1924658,13.4727273 35.0739726,13.4727273 L34.6,13.4727273 C34.6,13.4727273 34.4815068,13.4727273 34.4815068,13.5909091 C34.3630137,13.8272727 34.1260274,14.3 33.8890411,14.6545455 L36.4958904,14.6545455 C38.2732877,15.0090909 38.2732877,16.4272727 38.3917808,16.6636364 L39.5767123,21.6272727 C39.9321918,22.9272727 40.7616438,22.9272727 40.880137,22.9272727 C40.7616438,23.2818182 42.8945205,23.2818182 43.7239726,23.1636364 C43.6054795,23.2818182 43.8424658,23.2818182 43.7239726,23.1636364" id="Shape"></path>
                    <path d="M42.8945205,23.1636364 L44.1979452,23.1636364 L44.1979452,23.2818182 L42.8945205,23.2818182 L42.8945205,23.1636364 Z M56.4027397,15.7181818 L56.4027397,19.5 C56.4027397,19.7363636 56.4027397,19.9727273 56.5212329,20.2090909 C56.5212329,20.3272727 56.5212329,20.4454545 56.639726,20.4454545 C56.7582192,20.5636364 56.8767123,20.5636364 56.9952055,20.5636364 C57.5876712,20.5636364 58.180137,20.6818182 58.7726027,20.6818182 C59.3650685,20.6818182 59.9575342,20.8 60.55,20.6818182 C61.0239726,20.5636364 61.6164384,20.3272727 61.9719178,19.8545455 C62.3273973,19.5 62.5643836,19.1454545 62.8013699,18.7909091 C62.919863,18.6727273 62.919863,18.5545455 63.0383562,18.4363636 C63.1568493,18.3181818 63.0383562,18.3181818 63.0383562,18.2 C62.919863,18.9090909 62.8013699,19.6181818 62.6828767,20.2090909 C62.6828767,20.4454545 62.5643836,20.6818182 62.5643836,20.9181818 C62.5643836,21.1545455 62.4458904,21.3909091 62.3273973,21.5090909 C62.2089041,21.6272727 61.8534247,21.6272727 61.6164384,21.6272727 L54.5068493,21.6272727 C54.269863,21.6272727 54.1513699,21.6272727 53.9143836,21.3909091 C53.7958904,21.1545455 53.7958904,20.9181818 53.7958904,20.8 C53.7958904,20.0909091 53.9143836,19.3818182 53.9143836,18.6727273 C54.0328767,16.5454545 54.0328767,14.4181818 54.0328767,12.4090909 L54.0328767,10.8727273 C54.0328767,10.4 54.0328767,9.92727273 53.9143836,9.45454545 C53.7958904,9.1 53.6773973,8.98181818 53.3219178,8.62727273 C53.2034247,8.50909091 52.7294521,8.39090909 52.7294521,8.27272727 C52.7294521,8.27272727 52.3739726,8.15454545 52.7294521,8.27272727 L60.9054795,8.27272727 C61.1424658,8.27272727 61.2609589,8.27272727 61.3794521,8.50909091 C61.6164384,8.50909091 61.6164384,8.74545455 61.6164384,8.86363636 C61.6164384,9.1 61.7349315,9.33636364 61.7349315,9.57272727 L62.090411,11.3454545 C62.090411,11.3454545 62.090411,11.4636364 62.090411,11.3454545 C62.090411,11.2272727 61.9719178,11.2272727 61.9719178,11.1090909 C61.8534247,10.9909091 61.8534247,10.8727273 61.7349315,10.7545455 C61.4979452,10.4 61.1424658,10.0454545 60.7869863,9.69090909 C60.4315068,9.33636364 59.9575342,9.1 59.4835616,8.98181818 C58.8910959,8.86363636 58.2986301,8.86363636 57.7061644,8.86363636 L56.8767123,8.86363636 C56.639726,8.86363636 56.4027397,8.98181818 56.4027397,9.33636364 L56.4027397,15.7181818" id="Shape"></path>
                    <path d="M56.639726,15.2454545 C56.7582192,14.8909091 56.8767123,14.5363636 57.1136986,14.1818182 C57.1136986,14.0636364 57.2321918,13.8272727 57.2321918,13.8272727 C57.3506849,13.7090909 57.4691781,13.8272727 57.7061644,13.8272727 L60.3130137,13.8272727 C60.1945205,14.6545455 59.3650685,15.1272727 58.6541096,15.2454545 L56.639726,15.2454545 M62.8013699,19.0272727 L62.919863,19.0272727 L63.1568493,17.7272727 L63.0383562,17.7272727 L62.8013699,19.0272727 Z M61.9719178,10.5181818 L62.2089041,11.8181818 L61.9719178,10.5181818 Z M63.0383562,15.4818182 C63.1568493,16.6636364 63.5123288,17.7272727 64.1047945,18.7909091 C64.6972603,19.7363636 65.5267123,20.8 66.4746575,21.2727273 C67.3041096,21.7454545 68.4890411,21.9818182 69.4369863,21.7454545 C69.7924658,21.6272727 70.2664384,21.3909091 70.6219178,21.1545455 C71.0958904,20.9181818 71.3328767,20.5636364 71.6883562,20.3272727 L72.6363014,19.3818182 L72.3993151,19.6181818 L72.2808219,19.6181818 C72.0438356,19.7363636 71.8068493,19.8545455 71.6883562,19.8545455 C71.2143836,19.9727273 70.740411,20.0909091 70.1479452,20.0909091 C69.0815068,20.0909091 68.0150685,19.7363636 67.0671233,19.1454545 C66.1191781,18.4363636 65.7636986,17.3727273 65.5267123,16.3090909 C65.289726,15.2454545 65.289726,14.0636364 65.4082192,12.8818182 C65.5267123,11.9363636 65.7636986,11.1090909 66.2376712,10.2818182 C66.7116438,9.57272727 67.4226027,9.1 68.1335616,8.98181818 C68.9630137,8.74545455 69.7924658,8.86363636 70.3849315,9.21818182 C70.740411,9.45454545 70.9773973,9.45454545 71.4513699,10.0454545 C71.569863,10.1636364 71.9253425,10.6363636 72.0438356,10.8727273 L72.0438356,11.2272727 C72.0438356,11.3454545 72.0438356,11.2272727 72.0438356,11.2272727 L72.0438356,8.98181818 C72.0438356,8.86363636 72.0438356,8.62727273 71.8068493,8.50909091 C71.6883562,8.39090909 71.4513699,8.39090909 71.3328767,8.27272727 C70.1479452,7.8 68.8445205,7.8 67.659589,8.03636364 C65.7636986,8.50909091 64.2232877,9.69090909 63.5123288,11.5818182 C63.2753425,12.0545455 63.1568493,12.6454545 63.0383562,13.2363636 L63.0383562,15.4818182 M52.3739726,19.0272727 L52.6109589,17.7272727 L52.6109589,17.6090909 L52.3739726,19.0272727 Z" id="Shape"></path>
                    <path d="M52.6109589,18.2 C52.4924658,18.2 52.4924658,18.0818182 52.6109589,18.2 C52.4924658,18.0818182 52.4924658,18.2 52.6109589,18.2 C52.2554795,19.2636364 51.4260274,19.9727273 50.5965753,20.4454545 C49.8856164,20.8 49.1746575,20.8 48.3452055,20.8 C47.6342466,20.8 46.9232877,20.6818182 46.0938356,20.5636364 C45.8568493,20.4454545 46.0938356,20.2090909 46.2123288,20.0909091 C46.3308219,19.8545455 46.4493151,19.6181818 46.6863014,19.3818182 C46.9232877,19.0272727 47.160274,18.6727273 47.2787671,18.2 C47.6342466,17.4909091 48.1082192,16.6636364 48.4636986,15.9545455 C49.2931507,14.3 50.2410959,12.7636364 51.0705479,11.1090909 C51.4260274,10.5181818 51.6630137,9.92727273 52.0184932,9.33636364 C52.1369863,9.1 52.3739726,8.74545455 52.3739726,8.50909091 C52.3739726,8.27272727 52.1369863,8.27272727 52.0184932,8.27272727 L44.4349315,8.27272727 C44.1979452,8.27272727 43.8424658,8.27272727 43.7239726,8.50909091 C43.6054795,8.74545455 43.6054795,8.98181818 43.6054795,9.21818182 L43.6054795,11.2272727 C43.6054795,11.1090909 43.7239726,10.8727273 43.7239726,10.8727273 C43.8424658,10.6363636 43.9609589,10.5181818 43.9609589,10.5181818 C44.1979452,10.2818182 44.1979452,10.1636364 44.6719178,9.80909091 C45.5013699,9.1 46.4493151,8.98181818 47.5157534,8.98181818 L48.8191781,8.98181818 C48.9376712,8.98181818 49.1746575,8.98181818 49.2931507,9.1 C49.530137,9.21818182 49.2931507,9.45454545 49.1746575,9.57272727 C48.5821918,10.6363636 47.989726,11.8181818 47.3972603,12.8818182 C45.9753425,15.3636364 44.6719178,17.9636364 43.25,20.4454545 C43.1315068,20.6818182 42.8945205,21.0363636 42.8945205,21.2727273 L42.8945205,21.6272727 L51.7815068,21.6272727 C52.0184932,21.5090909 52.0184932,21.2727273 52.1369863,21.1545455 L52.4924658,19.7363636 C52.3739726,19.1454545 52.4924658,18.6727273 52.6109589,18.2" id="Path"></path>
                    <path d="M43.4869863,11.7 L43.6054795,11.7 L43.6054795,10.4 L43.4869863,10.4 L43.4869863,11.7 Z M112.805479,12.2909091 L112.923973,12.2909091 L113.279452,10.9909091 L113.160959,10.9909091 L112.805479,12.2909091 Z" id="Shape"></path>
                    <path d="M115.056849,17.2545455 C115.056849,18.4363636 114.819863,19.5 113.990411,20.3272727 C113.279452,21.0363636 112.45,21.3909091 111.620548,21.6272727 C109.843151,22.1 107.828767,21.8636364 106.169863,20.9181818 C105.932877,20.8 105.69589,20.5636364 105.814384,20.3272727 C105.932877,20.0909091 105.932877,19.7363636 106.05137,19.5 C106.169863,18.9090909 106.406849,18.3181818 106.643836,17.7272727 C106.643836,17.6090909 106.762329,17.6090909 106.762329,17.4909091 L106.762329,17.8454545 C106.880822,18.7909091 107.236301,19.5 107.828767,20.2090909 C108.539726,21.0363636 109.724658,21.2727273 110.791096,20.9181818 C111.857534,20.5636364 112.568493,19.8545455 112.686986,18.6727273 C112.805479,17.6090909 112.805479,16.1909091 111.739041,15.6 C111.265068,15.3636364 110.672603,15.2454545 110.19863,15.2454545 C109.606164,15.1272727 109.013699,15.1272727 108.421233,14.8909091 C107.354795,14.5363636 106.525342,13.8272727 106.169863,12.6454545 C105.932877,11.5818182 106.05137,10.5181818 106.643836,9.57272727 C107.354795,8.62727273 108.421233,8.15454545 109.487671,8.03636364 C110.672603,7.91818182 111.857534,8.15454545 112.923973,8.62727273 L113.634932,8.98181818 C113.871918,9.1 113.634932,9.45454545 113.634932,9.69090909 C113.516438,10.1636364 113.160959,11.2272727 113.042466,11.8181818 C113.042466,12.0545455 113.042466,11.7 112.923973,11.8181818 C112.923973,11.7 113.042466,11.4636364 112.923973,11.3454545 C112.923973,10.9909091 112.805479,10.6363636 112.686986,10.4 C112.45,9.92727273 112.213014,9.45454545 111.857534,9.21818182 C111.028082,8.62727273 109.724658,8.39090909 108.895205,9.1 C108.184247,9.69090909 107.828767,10.8727273 108.184247,11.8181818 C108.539726,12.8818182 109.606164,13.2363636 110.55411,13.3545455 C111.739041,13.5909091 113.042466,13.5909091 113.990411,14.4181818 C114.819863,15.1272727 115.056849,16.1909091 115.056849,17.2545455 M106.406849,18.3181818 L106.762329,17.0181818 L106.406849,18.3181818 Z M120.270548,16.3090909 C121.336986,16.0727273 122.521918,15.7181818 123.35137,14.8909091 C124.180822,14.0636364 124.773288,12.5272727 124.654795,11.3454545 C124.654795,10.1636364 124.180822,9.1 123.114384,8.62727273 C122.166438,8.15454545 121.1,8.15454545 120.152055,8.15454545 C119.20411,8.15454545 118.374658,8.27272727 117.426712,8.27272727 L115.175342,8.27272727 C115.056849,8.27272727 114.70137,8.15454545 114.70137,8.15454545 L114.938356,8.27272727 C115.056849,8.27272727 115.056849,8.39090909 115.056849,8.39090909 C115.293836,8.50909091 115.293836,8.62727273 115.412329,8.86363636 C115.767808,9.45454545 115.886301,10.0454545 115.886301,10.6363636 L115.886301,15.0090909 C115.886301,16.4272727 115.886301,17.9636364 115.767808,19.3818182 L115.767808,21.1545455 C115.886301,21.7454545 116.360274,21.6272727 116.834247,21.6272727 L119.20411,21.6272727 L119.085616,21.6272727 C119.085616,21.6272727 118.84863,21.6272727 118.730137,21.5090909 C118.493151,21.2727273 118.256164,21.0363636 118.256164,20.6818182 C118.137671,20.2090909 118.256164,19.6181818 118.256164,19.1454545 L118.256164,9.80909091 C118.256164,9.57272727 118.137671,9.33636364 118.374658,9.21818182 C118.493151,9.1 118.730137,9.1 118.84863,9.1 C119.322603,8.98181818 119.796575,8.98181818 120.270548,8.98181818 C121.218493,9.1 121.929452,10.0454545 122.284932,10.9909091 C122.521918,11.9363636 122.403425,13.4727273 121.810959,14.1818182 C121.218493,14.8909091 120.744521,15.2454545 119.915068,15.3636364 C119.678082,15.3636364 119.678082,15.3636364 119.441096,15.4818182 C119.322603,15.4818182 119.20411,15.6 119.20411,15.7181818 C118.967123,15.9545455 118.730137,16.3090909 118.611644,16.5454545 C119.441096,16.4272727 119.796575,16.3090909 120.270548,16.3090909" id="Shape"></path>
                    <path d="M114.582877,8.03636364 L115.767808,8.50909091 L114.582877,7.91818182 L114.582877,8.03636364 Z M145.628082,8.15454545 C146.102055,8.39090909 146.457534,8.62727273 146.694521,9.1 C147.05,9.69090909 147.05,10.4 147.05,10.9909091 L147.05,15.4818182 C147.05,17.0181818 147.05,18.4363636 146.931507,19.9727273 C146.931507,20.4454545 146.813014,21.1545455 147.05,21.5090909 C147.168493,21.7454545 147.405479,21.7454545 147.523973,21.7454545 L150.486301,21.7454545 C149.30137,21.6272727 149.30137,20.3272727 149.30137,19.3818182 L149.30137,15.2454545 C149.30137,13.7090909 149.30137,12.2909091 149.419863,10.7545455 L149.419863,9.69090909 C149.419863,9.33636364 149.538356,8.98181818 149.419863,8.62727273 C149.30137,8.39090909 149.182877,8.39090909 148.94589,8.39090909 L145.983562,8.39090909 C145.865068,8.15454545 145.746575,8.03636364 145.628082,8.15454545" id="Shape"></path>
                    <path d="M145.391096,8.03636364 L146.576027,8.62727273 L146.576027,8.50909091 L145.391096,7.91818182 L145.391096,8.03636364 Z M153.80411,10.2818182 C153.567123,10.4 153.685616,10.5181818 153.685616,10.7545455 L153.685616,13.8272727 C153.685616,15.3636364 153.685616,16.7818182 153.567123,18.3181818 C153.567123,19.0272727 153.567123,19.6181818 153.44863,20.3272727 C153.44863,20.6818182 153.330137,21.1545455 153.567123,21.3909091 C153.685616,21.5090909 153.80411,21.6272727 154.041096,21.6272727 L157.59589,21.6272727 L157.121918,21.6272727 C156.766438,21.5090909 156.529452,21.1545455 156.292466,20.8 C156.055479,20.3272727 155.936986,19.7363636 155.936986,19.1454545 L155.936986,15.1272727 C155.936986,13.2363636 155.936986,11.5818182 156.055479,9.69090909 C155.226027,9.92727273 154.515068,10.0454545 153.80411,10.2818182" id="Shape"></path>
                    <path d="M150.841781,8.27272727 C150.841781,8.15454545 151.078767,8.15454545 151.19726,8.15454545 L158.543836,8.15454545 C158.899315,8.15454545 159.254795,8.03636364 159.610274,7.91818182 C159.728767,7.8 159.84726,7.8 159.965753,7.8 C160.084247,7.8 160.20274,7.68181818 160.20274,7.68181818 L160.20274,7.8 C160.084247,8.15454545 159.84726,8.50909091 159.728767,8.86363636 C159.610274,9.1 159.491781,9.57272727 159.254795,9.57272727 L154.515068,9.57272727 C153.80411,9.57272727 153.093151,9.45454545 152.382192,9.57272727 C151.671233,9.69090909 151.19726,9.80909091 150.960274,10.5181818 C150.841781,10.6363636 150.841781,10.7545455 150.841781,11.1090909 L150.841781,10.9909091 C150.841781,10.4 150.723288,8.74545455 150.841781,8.27272727 M1.77739726,0.590909091 C1.89589041,0.945454545 2.13287671,1.3 2.48835616,1.53636364 C2.60684932,1.41818182 2.72534247,1.3 2.96232877,1.3 C3.08082192,1.65454545 3.19931507,1.89090909 3.55479452,2.24545455 C4.73972603,2.6 6.28013699,2.95454545 7.34657534,3.54545455 C7.34657534,2.95454545 7.70205479,2.6 8.05753425,2.48181818 C7.70205479,2.6 7.58356164,2.83636364 7.70205479,3.19090909 C7.9390411,4.13636364 9.3609589,4.60909091 10.3089041,5.08181818 C11.6123288,5.67272727 12.9157534,6.5 14.1006849,7.44545455 C15.4041096,8.27272727 15.9965753,9.1 15.8780822,10.1636364 C15.8780822,10.4 15.8780822,10.5181818 15.6410959,10.6363636 C15.4041096,10.8727273 15.1671233,10.7545455 15.0486301,11.1090909 C15.8780822,11.2272727 16.7075342,11.3454545 17.4184932,11.8181818 C18.0109589,11.7 18.4849315,11.1090909 19.0773973,10.8727273 C19.669863,10.2818182 19.9068493,9.45454545 19.7883562,8.62727273 C19.7883562,8.39090909 19.669863,8.03636364 19.3143836,7.91818182 C18.4849315,7.91818182 17.5369863,8.15454545 16.9445205,7.44545455 L16.9445205,7.32727273 C17.1815068,7.68181818 17.6554795,7.56363636 18.0109589,7.56363636 L18.1294521,7.44545455 C17.5369863,7.32727273 17.1815068,6.5 16.5890411,6.61818182 C16.4705479,6.73636364 16.4705479,6.97272727 16.4705479,6.97272727 C16.2335616,6.73636364 16.1150685,6.5 16.2335616,6.14545455 C16.3520548,5.90909091 16.5890411,5.55454545 17.1815068,5.55454545 L17.6554795,5.55454545 C17.6554795,5.43636364 17.6554795,5.31818182 17.7739726,5.2 C17.8924658,4.96363636 18.2479452,4.96363636 18.6034247,4.96363636 C18.4849315,4.84545455 18.4849315,4.84545455 18.6034247,4.72727273 C18.7219178,4.60909091 18.840411,4.72727273 18.840411,4.49090909 C18.7219178,4.13636364 18.3664384,3.78181818 18.7219178,3.42727273 C19.0773973,3.07272727 19.5513699,3.30909091 20.0253425,3.19090909 C20.0253425,3.30909091 20.0253425,3.42727273 20.1438356,3.54545455 C20.2623288,3.54545455 20.4993151,3.42727273 20.6178082,3.30909091 L20.3808219,3.30909091 L20.3808219,2.95454545 L20.6178082,2.95454545 L20.6178082,2.71818182 C20.7363014,2.71818182 20.8547945,2.71818182 20.9732877,2.83636364 L20.9732877,3.07272727 L21.210274,3.07272727 L20.8547945,3.54545455 L20.6178082,3.54545455 C20.6178082,3.66363636 20.7363014,3.78181818 20.7363014,3.9 C20.8547945,3.9 20.9732877,3.66363636 21.0917808,3.66363636 C21.3287671,4.01818182 22.2767123,4.01818182 22.039726,4.72727273 C21.9212329,4.96363636 21.5657534,5.2 21.4472603,5.43636364 C21.4472603,5.55454545 21.5657534,5.55454545 21.5657534,5.67272727 C21.5657534,5.79090909 21.4472603,5.79090909 21.3287671,5.79090909 C21.210274,5.90909091 21.3287671,5.90909091 21.3287671,6.02727273 C21.3287671,5.90909091 21.4472603,6.02727273 21.5657534,6.14545455 C21.8027397,6.14545455 22.039726,6.14545455 22.1582192,6.02727273 C22.2767123,5.90909091 22.1582192,5.67272727 22.1582192,5.55454545 C22.2767123,5.67272727 22.5136986,5.90909091 22.3952055,6.26363636 C22.3952055,6.5 22.039726,6.61818182 21.9212329,6.73636364 C21.9212329,6.85454545 21.9212329,6.97272727 22.039726,7.09090909 C22.039726,7.09090909 22.1582192,7.09090909 22.1582192,6.97272727 L22.1582192,7.20909091 C22.8691781,8.50909091 23.2246575,9.92727273 23.4616438,11.4636364 C23.580137,11.5818182 23.580137,11.7 23.6986301,11.7 C24.1726027,11.7 24.409589,11.1090909 24.8835616,10.9909091 C24.8835616,10.6363636 24.5280822,10.8727273 24.2910959,10.6363636 C23.9356164,10.2818182 23.9356164,9.80909091 24.0541096,9.33636364 C24.1726027,8.39090909 25.1205479,7.8 25.95,7.32727273 C26.6609589,6.73636364 26.8979452,6.38181818 27.7273973,5.90909091 C28.9123288,5.31818182 30.2157534,4.96363636 31.2821918,4.13636364 C31.4006849,4.01818182 31.6376712,3.9 31.6376712,3.66363636 C31.7561644,3.54545455 31.7561644,3.30909091 31.6376712,3.19090909 L31.2821918,2.83636364 C31.7561644,3.07272727 31.8746575,3.42727273 31.8746575,3.78181818 C32.9410959,3.42727273 34.1260274,3.19090909 35.1924658,2.83636364 C35.5479452,2.71818182 35.9034247,2.36363636 36.0219178,1.89090909 C36.2589041,1.89090909 36.3773973,2.00909091 36.4958904,2.12727273 C36.7328767,1.89090909 36.969863,1.65454545 37.0883562,1.3 C37.0883562,1.18181818 37.2068493,1.06363636 37.0883562,0.945454545 L36.969863,0.827272727 C37.0883562,0.709090909 37.3253425,0.945454545 37.4438356,1.06363636 C37.5623288,1.3 37.6808219,1.77272727 37.5623288,2.00909091 C37.5623288,2.12727273 37.5623288,2.12727273 37.6808219,2.24545455 C37.9178082,2.95454545 37.6808219,3.30909091 37.0883562,3.78181818 C36.7328767,4.01818182 36.6143836,3.9 36.8513699,4.13636364 C36.969863,4.25454545 36.969863,4.49090909 36.969863,4.72727273 C36.8513699,5.2 36.3773973,5.31818182 36.2589041,5.79090909 C36.3773973,6.02727273 36.3773973,6.5 36.140411,6.73636364 C35.9034247,7.09090909 35.5479452,7.32727273 35.3109589,7.56363636 C35.4294521,7.91818182 35.3109589,8.15454545 35.1924658,8.50909091 C34.8369863,8.98181818 34.3630137,9.33636364 33.7705479,9.45454545 C33.8890411,9.80909091 33.7705479,10.1636364 33.4150685,10.2818182 C33.5335616,10.5181818 33.5335616,10.7545455 33.4150685,10.8727273 C33.2965753,11.1090909 33.059589,11.2272727 32.8226027,11.3454545 C32.9410959,11.4636364 33.059589,11.5818182 33.059589,11.7 C33.059589,12.0545455 32.9410959,12.1727273 32.4671233,12.2909091 C32.1116438,12.4090909 31.7561644,12.2909091 31.6376712,12.5272727 C31.8746575,12.6454545 32.230137,12.5272727 32.3486301,12.8818182 C32.3486301,13.1181818 32.230137,13.2363636 32.1116438,13.3545455 C31.7561644,13.5909091 31.1636986,13.4727273 30.8082192,13.3545455 C30.689726,13.3545455 30.689726,13.4727273 30.689726,13.4727273 C31.0452055,13.7090909 31.8746575,13.7090909 31.5191781,14.3 C31.5191781,14.3 31.4006849,14.6545455 30.689726,14.4181818 C30.5712329,14.4181818 30.3342466,14.3 30.0972603,14.1818182 L29.9787671,14.3 C30.2157534,14.5363636 30.4527397,14.6545455 30.4527397,15.0090909 C30.4527397,15.2454545 30.4527397,15.3636364 30.2157534,15.4818182 C29.9787671,15.6 29.5047945,15.6 29.2678082,15.4818182 C29.2678082,15.4818182 29.1493151,15.4818182 29.1493151,15.6 C29.2678082,15.7181818 29.3863014,15.8363636 29.2678082,16.0727273 C29.1493151,16.1909091 29.0308219,16.3090909 28.9123288,16.3090909 C28.5568493,16.4272727 28.319863,16.1909091 28.0828767,15.9545455 L27.9643836,15.9545455 C27.9643836,16.1909091 28.319863,16.4272727 28.2013699,16.7818182 C28.2013699,16.9 27.9643836,17.1363636 27.7273973,17.1363636 C27.490411,17.1363636 27.2534247,17.0181818 27.1349315,17.0181818 C27.1349315,17.0181818 26.8979452,17.2545455 26.6609589,17.3727273 C26.4239726,17.3727273 26.0684932,17.2545455 25.95,17.1363636 C25.7130137,17.3727273 25.1205479,17.6090909 24.6465753,17.2545455 C24.6465753,17.4909091 24.6465753,17.6090909 24.409589,17.7272727 C24.2910959,17.8454545 24.0541096,17.8454545 23.9356164,17.8454545 C23.6986301,17.7272727 23.580137,17.4909091 23.4616438,17.7272727 C23.3431507,17.9636364 22.9876712,18.0818182 22.6321918,17.9636364 C22.6321918,17.9636364 22.5136986,17.8454545 22.3952055,17.8454545 C22.3952055,17.8454545 22.1582192,18.0818182 21.9212329,18.2 C21.8027397,18.3181818 21.6842466,18.3181818 21.9212329,18.3181818 C22.2767123,18.4363636 22.3952055,18.9090909 22.8691781,19.2636364 C22.9876712,19.3818182 23.1061644,19.5 23.1061644,19.6181818 C23.580137,19.7363636 24.2910959,20.2090909 24.7650685,20.2090909 C24.7650685,19.5 24.409589,18.5545455 25.0020548,17.9636364 C25.3575342,17.7272727 25.7130137,17.4909091 26.0684932,17.6090909 C26.1869863,17.6090909 26.3054795,17.7272727 26.4239726,17.8454545 C26.3054795,17.7272727 26.1869863,17.7272727 25.95,17.7272727 C25.7130137,17.7272727 25.5945205,17.7272727 25.4760274,17.9636364 C25.5945205,18.0818182 25.5945205,18.2 25.4760274,18.4363636 C25.3575342,18.5545455 25.2390411,18.7909091 25.0020548,18.7909091 C25.0020548,18.9090909 25.1205479,18.9090909 25.1205479,19.0272727 C25.3575342,19.3818182 24.5280822,19.5 25.0020548,19.8545455 C25.3575342,19.2636364 25.8315068,18.4363636 26.5424658,18.4363636 C26.8979452,18.4363636 27.3719178,18.4363636 27.490411,18.9090909 C27.6089041,19.1454545 27.490411,19.1454545 27.490411,19.1454545 C27.490411,19.0272727 27.3719178,18.7909091 27.1349315,18.6727273 C27.0164384,18.5545455 26.7794521,18.5545455 26.6609589,18.6727273 C26.6609589,18.7909091 26.6609589,18.9090909 26.4239726,19.0272727 L25.8315068,19.0272727 C25.8315068,19.2636364 25.8315068,19.6181818 25.5945205,19.7363636 L25.3575342,19.7363636 C25.4760274,19.8545455 25.3575342,20.0909091 25.2390411,20.3272727 C25.7130137,20.5636364 26.3054795,20.4454545 26.7794521,20.4454545 C26.8979452,20.4454545 27.1349315,20.5636364 27.1349315,20.6818182 C27.2534247,20.9181818 27.3719178,21.1545455 27.2534247,21.5090909 C27.1349315,21.7454545 26.8979452,21.8636364 26.6609589,21.8636364 L27.0164384,21.5090909 C27.0164384,21.3909091 27.0164384,21.1545455 26.8979452,21.1545455 C26.7794521,21.1545455 26.7794521,21.2727273 26.6609589,21.1545455 C26.5424658,20.8 26.1869863,21.1545455 26.0684932,21.0363636 C25.8315068,20.5636364 25.3575342,21.1545455 25.1205479,20.6818182 C24.8835616,20.8 24.7650685,21.0363636 24.5280822,21.1545455 C24.2910959,21.2727273 24.1726027,20.9181818 23.9356164,21.1545455 C23.8171233,21.3909091 23.580137,21.5090909 23.3431507,21.3909091 C23.2246575,21.3909091 23.2246575,21.2727273 23.2246575,21.2727273 C23.1061644,21.3909091 23.1061644,21.5090909 23.1061644,21.7454545 C23.2246575,21.9818182 23.3431507,22.1 23.3431507,22.1 C23.1061644,21.9818182 22.9876712,21.7454545 22.9876712,21.6272727 C22.8691781,21.2727273 23.1061644,21.0363636 23.2246575,20.8 L23.3431507,20.6818182 C23.2246575,20.5636364 23.1061644,20.5636364 22.9876712,20.5636364 L22.9876712,20.6818182 C22.7506849,20.4454545 22.2767123,20.3272727 21.9212329,20.2090909 C21.5657534,20.3272727 21.0917808,20.4454545 20.8547945,20.9181818 L20.6178082,20.9181818 L19.9068493,21.1545455 L19.9068493,21.0363636 C19.5513699,21.0363636 19.3143836,20.9181818 19.0773973,20.6818182 L18.9589041,20.5636364 C19.0773973,20.8 19.3143836,20.9181818 19.669863,20.9181818 C20.0253425,20.9181818 20.2623288,20.8 20.6178082,20.4454545 C19.9068493,20.2090909 18.9589041,20.3272727 18.4849315,19.6181818 C18.3664384,19.5 18.2479452,19.3818182 18.2479452,19.2636364 L17.5369863,19.2636364 L17.5369863,19.3818182 C17.6554795,19.5 17.5369863,19.7363636 17.7739726,19.8545455 C17.8924658,19.9727273 18.0109589,19.9727273 18.1294521,20.0909091 L18.1294521,20.3272727 C19.3143836,21.0363636 20.7363014,21.9818182 20.6178082,22.1 C20.7363014,22.1 20.8547945,22.1 20.9732877,21.9818182 C21.0917808,21.5090909 20.9732877,20.9181818 21.4472603,20.6818182 C21.8027397,20.5636364 22.1582192,20.5636364 22.3952055,20.6818182 C22.6321918,20.8 22.6321918,20.9181818 22.7506849,21.1545455 L22.7506849,21.7454545 C22.7506849,21.5090909 22.6321918,21.1545455 22.3952055,21.0363636 L22.2767123,21.0363636 C22.2767123,21.1545455 22.2767123,21.2727273 22.1582192,21.3909091 C22.039726,21.5090909 21.8027397,21.5090909 21.6842466,21.3909091 C21.8027397,21.8636364 21.210274,22.1 21.210274,22.5727273 L21.0917808,22.8090909 C21.3287671,22.9272727 21.5657534,22.9272727 21.9212329,22.9272727 C22.2767123,22.9272727 22.6321918,22.5727273 22.9876712,22.8090909 C23.2246575,23.0454545 23.4616438,23.2818182 23.3431507,23.6363636 C23.3431507,23.7545455 23.3431507,23.7545455 23.2246575,23.8727273 C23.3431507,23.7545455 23.2246575,23.5181818 23.2246575,23.4 C23.2246575,23.2818182 22.9876712,23.1636364 22.9876712,23.1636364 C22.9876712,23.2818182 22.8691781,23.2818182 22.8691781,23.4 C22.6321918,23.5181818 22.5136986,23.1636364 22.2767123,23.1636364 C22.2767123,23.2818182 22.1582192,23.4 22.039726,23.4 C21.6842466,23.5181818 21.4472603,22.9272727 21.210274,23.2818182 C21.210274,23.4 21.3287671,23.6363636 21.4472603,23.7545455 C21.6842466,24.1090909 22.1582192,24.2272727 22.1582192,24.5818182 C22.1582192,24.9363636 22.2767123,25.2909091 22.039726,25.5272727 C21.9212329,25.7636364 21.4472603,25.7636364 21.210274,25.5272727 C21.4472603,25.6454545 21.8027397,25.5272727 21.9212329,25.4090909 L21.9212329,25.0545455 C21.6842466,25.0545455 21.5657534,24.9363636 21.4472603,24.7 C21.3287671,24.5818182 21.4472603,24.2272727 21.0917808,24.2272727 C20.8547945,23.9909091 20.7363014,23.7545455 20.8547945,23.5181818 C20.2623288,22.5727273 19.5513699,23.8727273 18.9589041,23.0454545 C18.840411,23.1636364 18.6034247,23.1636364 18.3664384,23.1636364 C18.1294521,23.0454545 18.3664384,22.6909091 18.1294521,22.8090909 C17.8924658,22.9272727 17.8924658,23.1636364 17.8924658,23.5181818 C17.7739726,23.2818182 17.6554795,22.9272727 17.8924658,22.6909091 C18.6034247,22.1 19.4328767,22.9272727 20.1438356,22.9272727 C20.0253425,22.8090909 19.7883562,22.6909091 20.0253425,22.5727273 C20.0253425,22.4545455 19.7883562,22.3363636 19.669863,22.3363636 C19.0773973,21.9818182 18.3664384,21.7454545 17.6554795,21.6272727 C17.6554795,21.7454545 17.5369863,21.8636364 17.4184932,21.8636364 C17.4184932,21.8636364 17.4184932,21.7454545 17.3,21.7454545 C17.3,21.8636364 17.1815068,22.1 17.1815068,22.2181818 C17.0630137,22.2181818 16.9445205,22.1 16.8260274,22.1 C16.4705479,22.4545455 16.2335616,22.6909091 15.759589,22.8090909 C15.759589,22.6909091 15.9965753,22.5727273 15.8780822,22.3363636 C15.4041096,22.3363636 14.8116438,22.3363636 14.4561644,21.8636364 C14.3376712,21.7454545 14.3376712,21.5090909 14.3376712,21.3909091 L14.5746575,21.1545455 C14.4561644,21.2727273 14.3376712,21.5090909 14.4561644,21.7454545 C14.6931507,22.2181818 15.0486301,22.1 15.5226027,22.1 C15.8780822,21.9818182 16.4705479,21.8636364 16.5890411,21.3909091 C15.6410959,21.1545455 14.8116438,21.0363636 14.1006849,20.0909091 C13.5082192,20.2090909 13.5082192,20.9181818 13.0342466,21.1545455 C12.7972603,21.2727273 12.4417808,21.2727273 12.2047945,21.1545455 L12.0863014,21.0363636 C12.2047945,21.1545455 12.4417808,21.2727273 12.560274,21.1545455 C12.7972603,21.0363636 12.9157534,20.8 12.9157534,20.5636364 C12.6787671,20.4454545 12.3232877,20.2090909 12.2047945,19.9727273 L11.1383562,20.0909091 C10.6643836,20.5636364 10.190411,20.9181818 9.47945205,20.6818182 C9.59794521,20.6818182 9.83493151,20.6818182 9.95342466,20.4454545 L9.59794521,20.4454545 C9.83493151,20.3272727 10.0719178,20.3272727 10.190411,20.0909091 C10.0719178,19.8545455 9.83493151,20.0909091 9.71643836,19.9727273 C9.3609589,19.8545455 9.00547945,19.8545455 8.76849315,19.5 L8.8869863,19.5 C8.29452055,19.2636364 7.22808219,19.1454545 7.10958904,18.3181818 C7.10958904,17.9636364 7.34657534,17.7272727 7.70205479,17.6090909 C7.58356164,17.7272727 7.22808219,17.9636364 7.34657534,18.2 C7.58356164,18.6727273 8.53150685,18.9090909 8.76849315,18.9090909 L8.8869863,18.9090909 C8.8869863,18.7909091 8.76849315,18.6727273 8.76849315,18.6727273 C9.24246575,18.9090909 9.71643836,18.7909091 10.190411,18.7909091 L10.0719178,18.6727273 C11.3753425,18.7909091 12.2047945,17.7272727 13.6267123,17.6090909 C13.389726,17.6090909 13.2712329,17.4909091 13.1527397,17.2545455 C12.7972603,17.4909091 12.3232877,17.7272727 11.9678082,17.2545455 C11.8493151,17.0181818 11.8493151,16.7818182 11.8493151,16.5454545 L11.8493151,16.4272727 C11.4938356,16.6636364 11.019863,17.0181818 10.5458904,16.6636364 C10.4273973,16.5454545 10.4273973,16.4272727 10.4273973,16.1909091 C10.4273973,16.0727273 10.5458904,15.9545455 10.6643836,15.8363636 C10.6643836,15.8363636 10.6643836,15.7181818 10.5458904,15.7181818 C10.190411,15.8363636 9.47945205,16.1909091 9.1239726,15.4818182 C8.8869863,15.1272727 9.3609589,14.7727273 9.59794521,14.6545455 C9.47945205,14.4181818 9.24246575,14.5363636 8.8869863,14.6545455 C8.53150685,14.7727273 8.1760274,14.8909091 7.9390411,14.6545455 C7.82054795,14.5363636 7.82054795,14.4181818 7.82054795,14.1818182 C7.9390411,13.9454545 8.4130137,13.8272727 8.65,13.7090909 C8.65,13.5909091 8.65,13.4727273 8.53150685,13.4727273 C7.82054795,13.4727273 7.10958904,13.8272727 6.75410959,13.1181818 C6.63561644,13 6.75410959,12.7636364 6.87260274,12.7636364 C6.99109589,12.6454545 7.22808219,12.6454545 7.46506849,12.6454545 C7.46506849,12.5272727 7.34657534,12.5272727 7.22808219,12.5272727 C6.63561644,12.4090909 6.04315068,12.5272727 5.92465753,11.9363636 C5.92465753,11.8181818 5.92465753,11.5818182 6.04315068,11.4636364 C5.68767123,11.3454545 5.45068493,11.1090909 5.33219178,10.7545455 C5.33219178,10.5181818 5.33219178,10.5181818 5.45068493,10.4 C5.09520548,10.1636364 4.97671233,9.80909091 5.09520548,9.45454545 C4.62123288,8.98181818 3.67328767,8.39090909 3.67328767,7.32727273 C3.19931507,6.85454545 2.48835616,6.14545455 2.60684932,5.31818182 C2.48835616,4.96363636 1.89589041,4.60909091 2.01438356,3.9 C2.01438356,3.78181818 2.13287671,3.66363636 2.13287671,3.66363636 C1.54041096,3.19090909 1.06643836,2.48181818 1.18493151,1.65454545 C1.30342466,1.53636364 1.30342466,1.65454545 1.30342466,1.65454545 C1.30342466,1.3 1.18493151,0.709090909 1.42191781,0.354545455 C1.54041096,0.236363636 1.54041096,0.118181818 1.77739726,0.118181818 C1.77739726,0.236363636 1.65890411,0.354545455 1.77739726,0.590909091" id="Shape"></path>
                </g>
            </g>
        </g>
    </g>
</svg>