<?xml version="1.0" encoding="UTF-8"?>
<svg width="100px" height="28px" viewBox="0 0 100 28" version="1.1" xmlns="http://www.w3.org/2000/svg" xmlns:xlink="http://www.w3.org/1999/xlink">
    <!-- Generator: sketchtool 63.1 (101010) - https://sketch.com -->
    <title>5C85EA0F-2462-454B-8593-A52D326EBCDC@svg</title>
    <desc>Created with sketchtool.</desc>
    <g id="tel-320" stroke="none" stroke-width="1" fill="none" fill-rule="evenodd">
        <g id="320-home-ENG" transform="translate(-28.000000, -1119.000000)">
            <g id="Group" transform="translate(22.000000, 971.000000)">
                <g id="sizeer" transform="translate(6.000000, 148.000000)">
                    <path d="M14.5759714,3.83535623e-05 L14.8620603,0.00529820541 C21.4250603,0.00829820541 27.9880603,0.00829820541 34.5510603,0.0102982054 C34.8160603,0.00429820541 35.0930603,0.0952982054 35.2670603,0.302298205 C35.4700603,0.537298205 35.5140603,0.876298205 35.4270603,1.16829821 C35.1140603,2.32829821 34.7930603,3.48629821 34.4800603,4.64629821 C34.2990603,5.34129821 33.6120603,5.89029821 32.8860603,5.86229821 C25.6730603,5.86029821 18.4600603,5.86229821 11.2490603,5.86029821 C10.6610603,5.86029821 10.1230603,6.19629821 9.73906031,6.62129821 C9.29206031,7.09229821 9.27706031,7.77629821 9.07706031,8.36329821 L9.07706031,8.36329821 L39.1420603,8.36329821 C40.0310603,8.37629821 40.9680603,8.49529821 41.7270603,8.99629821 C42.2780603,9.35829821 42.6410603,9.96729821 42.7320603,10.6172982 C42.8920603,11.5902982 42.5890603,12.5512982 42.3330603,13.4792982 C41.1200603,17.9112982 39.9060603,22.3422982 38.6950603,26.7742982 C38.5150603,27.4582982 37.8450603,27.9972982 37.1310603,27.9835649 C35.6940603,27.9812982 34.2580603,27.9835649 32.8210603,27.9822982 C32.5400603,27.9852982 32.2500603,27.8642982 32.0870603,27.6292982 C31.9110603,27.3852982 31.8990603,27.0592982 31.9840603,26.7792982 C33.3020603,22.0152982 34.6190603,17.2522982 35.9370603,12.4872982 C36.1280603,11.8682982 36.2560603,11.2102982 36.1390603,10.5632982 C36.0530603,10.0372982 35.7860603,9.50629821 35.3060603,9.24029821 C34.8900603,8.99529821 34.3920603,9.01329821 33.9270603,9.01529821 C25.5880603,9.01529821 17.2500603,9.01929821 8.91206031,9.01329821 C8.78706031,9.40829821 8.68906031,9.81129821 8.57606031,10.2092982 C8.31406031,11.0022982 9.07606031,11.8322982 9.86206031,11.8462982 C16.3980603,11.8502982 22.9340603,11.8632982 29.4710603,11.8642982 C30.1190603,11.8682982 30.8190603,12.0342982 31.2720603,12.5302982 C31.8770603,13.1812982 31.8530603,14.1642982 31.6140603,14.9662982 C30.8150603,17.9372982 30.0220603,20.9102982 29.2250603,23.8802982 C29.0390603,24.5442982 28.9110603,25.2392982 28.5520603,25.8382982 C27.8510603,27.0992982 26.4660603,27.9502982 25.0200603,27.9742982 C18.8980603,27.9782982 12.7770603,27.9602982 6.65506031,27.9602982 C5.74506031,27.9492982 4.82306031,28.0112982 3.92706031,27.8152982 C2.84406031,27.5942982 1.81206031,27.0512982 1.09106031,26.2042982 C0.158060307,25.1202982 -0.238939693,23.5702982 0.146060307,22.1822982 C0.942060307,19.2102982 1.73906031,16.2392982 2.53606031,13.2662982 C2.65506031,12.8322982 2.75306031,12.3872982 2.93806031,11.9732982 C3.42006031,10.8542982 4.26206031,9.90529821 5.27906031,9.24329821 C6.03606031,8.75129821 6.90906031,8.42229821 7.81306031,8.35829821 C8.24406031,6.77029821 8.67006031,5.18229821 9.10206031,3.59429821 C9.36806031,2.61229821 9.96106031,1.72229821 10.7760603,1.11129821 C11.9340603,0.228298205 13.4360603,-0.0427017946 14.8620603,0.00529820541 Z M99.8110603,11.6092982 C99.9500603,11.5882982 99.9850603,11.7672982 99.9990603,11.8712982 C99.9820603,12.3592982 99.7520603,12.8052982 99.5910603,13.2582982 C99.4620603,13.5772982 99.3580603,13.9242982 99.1130603,14.1742982 C99.0020603,14.2932982 98.8350603,14.2712982 98.6920603,14.2752982 C96.5320603,14.2652982 94.3730603,14.1722982 92.2120603,14.2342982 C91.4740603,14.2732982 90.7300603,14.2812982 90.0030603,14.4262982 C89.6370603,14.5202982 89.2140603,14.6582982 89.0490603,15.0322982 C88.6970603,15.7942982 88.6200603,16.6432982 88.4740603,17.4602982 L88.4740603,17.4602982 L87.5360603,22.4422982 C87.3170603,23.5462982 87.1830603,24.6802982 86.7520603,25.7302982 C86.4450603,26.5062982 85.9880603,27.2882982 85.2310603,27.6962982 C84.7800603,27.9602982 84.2440603,27.9652982 83.7360603,27.9742982 C80.1640603,27.9872982 76.5910603,27.9682982 73.0190603,27.9682982 C72.5760603,27.9722982 72.0780603,27.9552982 71.7280603,27.6442982 C71.4050603,27.3602982 71.3910603,26.8872982 71.4200603,26.4902982 C71.4880603,25.8672982 71.6430603,25.2572982 71.7510603,24.6412982 C72.0210603,23.2392982 72.2920603,21.8362982 72.5620603,20.4342982 C72.1920603,20.4402982 71.8490603,20.6812982 71.7520603,21.0422982 C71.2360603,22.5402982 71.0080603,24.1172982 70.5670603,25.6362982 C70.3630603,26.3032982 70.1150603,27.0332982 69.5130603,27.4452982 C68.7390603,27.9232982 67.7940603,28.0072982 66.9040603,27.9762982 L66.9040603,27.9762982 L57.3040603,27.9642982 C56.9090603,27.9532982 56.4320603,27.8712982 56.2240603,27.4912982 C55.9580603,27.0082982 56.0310603,26.4352982 56.1370603,25.9192982 L56.1370603,25.9192982 L57.1990603,20.4092982 C57.0030603,20.4672982 56.7530603,20.4862982 56.6530603,20.6932982 C56.2750603,21.3342982 56.1290603,22.0742982 55.9440603,22.7852982 C55.7010603,23.7742982 55.4940603,24.7752982 55.1860603,25.7472982 C55.0150603,26.2742982 54.7990603,26.8062982 54.4190603,27.2202982 C54.1050603,27.5612982 53.6480603,27.7202982 53.2010603,27.7942982 C52.4410603,27.9232982 51.6680603,27.9702982 50.8980603,27.9632982 C48.2090603,27.9622982 45.5200603,27.9632982 42.8310603,27.9622982 C42.4290603,27.9562982 41.9820603,27.8592982 41.7220603,27.5272982 C41.4270603,27.1582982 41.4540603,26.6392982 41.5990603,26.2132982 C41.8190603,25.6172982 42.2820603,25.1552982 42.7240603,24.7142982 C46.3350603,21.2632982 49.9510603,17.8182982 53.5460603,14.3522982 C50.5560603,14.3442982 47.5650603,14.3502982 44.5740603,14.3482982 L44.4039083,14.3488022 C44.1761003,14.3528982 43.9458603,14.3624982 43.7290603,14.2792982 C43.7020603,13.8212982 43.9000603,13.3932982 44.0570603,12.9752982 C44.2110603,12.6052982 44.3160603,12.1992982 44.5790603,11.8862982 C44.7120603,11.7192982 44.9400603,11.7622982 45.1270603,11.7572982 C48.0950603,11.7592982 51.0630603,11.7582982 54.0310603,11.7582982 C54.5420603,11.7492982 55.0830603,11.7772982 55.5360603,12.0392982 C55.8510603,12.2172982 56.0690603,12.5562982 56.0820603,12.9202982 C56.1100603,13.2852982 55.9130603,13.6112982 55.7280603,13.9082982 C54.9960603,15.0102982 53.9940603,15.8912982 53.0540603,16.8102982 C50.1200603,19.6322982 47.1890603,22.4582982 44.2600603,25.2862982 C47.0770603,25.2942982 49.8940603,25.2782982 52.7100603,25.2882982 C53.2640603,25.2892982 53.8280603,25.3242982 54.3730603,25.2002982 C54.6330603,25.1592982 54.7680603,24.9082982 54.8890603,24.7022982 C55.2810603,23.9742982 55.5210603,23.1732982 55.6970603,22.3692982 C55.8970603,21.5122982 56.0830603,20.6532982 56.2940603,19.7992982 C56.4080603,19.3202982 56.5730603,18.8482982 56.8240603,18.4232982 C57.0050603,18.1122982 57.3190603,17.8772982 57.6800603,17.8262982 C57.8650603,16.6582982 58.0780603,15.4892982 58.4790603,14.3732982 C58.7520603,13.6052982 59.1050603,12.8322982 59.7050603,12.2612982 C60.0840603,11.9022982 60.5970603,11.6732982 61.1270603,11.6832982 C63.8630603,11.6882982 66.6000603,11.6862982 69.3360603,11.6862982 C69.6800603,11.6802982 70.0500603,11.7662982 70.2860603,12.0342982 C70.7180603,12.4892982 70.7410603,13.1782982 70.6200603,13.7602982 C70.2540603,15.4202982 70.1160603,17.1492982 69.4450603,18.7272982 C69.2020603,19.2822982 68.9240603,19.8652982 68.4120603,20.2202982 C68.1140603,20.4272982 67.7470603,20.5132982 67.3870603,20.5122982 C64.3360603,20.4782982 61.2860603,20.4632982 58.2360603,20.4422982 C57.9880603,21.7032982 57.7600603,22.9682982 57.4930603,24.2242982 C57.4570603,24.4932982 57.3970603,24.8012982 57.5550603,25.0442982 C57.7260603,25.2522982 58.0210603,25.2762982 58.2730603,25.2902982 C60.7540603,25.3092982 63.2350603,25.3112982 65.7170603,25.3132982 C66.9260603,25.3142982 68.1410603,25.3492982 69.3440603,25.1992982 C69.7110603,25.1452982 70.1390603,25.0542982 70.3530603,24.7162982 C70.5340603,24.3762982 70.6380603,23.9992982 70.7480603,23.6302982 C71.0440603,22.5792982 71.2000603,21.4962982 71.4360603,20.4312982 C71.6210603,19.6172982 71.8720603,18.7912982 72.3840603,18.1192982 C72.5450603,17.9112982 72.8190603,17.8702982 73.0580603,17.8142982 C73.2320603,16.7952982 73.3900603,15.7672982 73.7210603,14.7862982 C73.9150603,14.2522982 74.0960603,13.7112982 74.3460603,13.2022982 C74.6230603,12.6352982 75.0450603,12.1012982 75.6480603,11.8632982 C76.2260603,11.6162982 76.8660603,11.7002982 77.4770603,11.6862982 C79.7260603,11.6842982 81.9760603,11.6912982 84.2250603,11.6812982 C84.7040603,11.6862982 85.2380603,11.6832982 85.6310603,11.9992982 C85.9440603,12.2502982 86.0090603,12.6762982 86.0360603,13.0522982 C86.0500603,13.5702982 85.9130603,14.0752982 85.8370603,14.5842982 C85.5820603,16.0912982 85.3730603,17.6412982 84.6990603,19.0322982 C84.4750603,19.4732982 84.2400603,19.9492982 83.7980603,20.2102982 C83.1560603,20.6032982 82.3680603,20.5742982 81.6440603,20.5372982 C81.2400603,20.5057982 80.8355603,20.4942982 80.4308103,20.4894232 L79.2160603,20.4812982 C77.3450603,20.4692982 75.4740603,20.4522982 73.6040603,20.4422982 C73.3550603,21.7412982 73.1520603,23.0502982 72.8500603,24.3382982 C72.8130603,24.5682982 72.7700603,24.8442982 72.9350603,25.0372982 C73.1150603,25.2322982 73.3940603,25.2792982 73.6480603,25.2922982 C76.8010603,25.3122982 79.9550603,25.3122982 83.1070603,25.3162982 C83.8510603,25.3032982 84.5960603,25.3482982 85.3380603,25.2952982 C85.7260603,25.3082982 85.9710603,24.9392982 86.0520603,24.6022982 C86.3840603,23.3692982 86.5850603,22.1042982 86.8080603,20.8482982 C87.0950603,19.1292982 87.4370603,17.4222982 87.7540603,15.7102982 C87.9150603,14.8252982 88.0940603,13.9412982 88.3720603,13.0852982 C88.5440603,12.6422982 88.7300603,12.1312982 89.1920603,11.9192982 C89.5434889,11.7657268 89.9250195,11.7259309 90.3064043,11.7051583 L90.7620603,11.6832982 C93.7790603,11.6502982 96.7940603,11.6272982 99.8110603,11.6092982 Z M7.64106031,9.04029821 C7.12806031,9.09529821 6.64506031,9.29629821 6.19906031,9.54629821 C5.46506031,9.96029821 4.80806031,10.5072982 4.26206031,11.1492982 C3.92806031,11.5522982 3.62806031,12.0022982 3.49206031,12.5132982 L3.49206031,12.5132982 L1.77006031,19.0052982 C1.70206031,19.2652982 1.67306031,19.5372982 1.71006031,19.8042982 C1.87806031,21.1022982 3.11706031,22.1722982 4.42906031,22.1272982 C10.3180603,22.1402982 16.2070603,22.1372982 22.0950603,22.1302982 C22.7070603,22.1322982 23.4010603,21.8402982 23.5870603,21.2102982 C24.0900603,19.3982982 24.5790603,17.5842982 25.0730603,15.7722982 C25.1940603,15.3672982 25.0650603,14.8692982 24.6850603,14.6482982 C24.4130603,14.4712982 24.0760603,14.4942982 23.7660603,14.4962982 C19.4310603,14.4962982 15.0960603,14.4942982 10.7610603,14.4942982 C10.2990603,14.4902982 9.83006031,14.5222982 9.37706031,14.4062982 C8.54206031,14.2072982 7.73406031,13.7382982 7.26706031,13.0012982 C6.94306031,12.5002982 6.86106031,11.8622982 7.01906031,11.2902982 C7.22606031,10.5402982 7.42806031,9.78829821 7.64106031,9.04029821 Z M80.0129353,14.3522982 L76.4280603,14.3522982 C75.9900603,14.3472982 75.5400603,14.4162982 75.1490603,14.6242982 C74.8190603,14.7882982 74.6470603,15.1482982 74.5570603,15.4892982 C74.4080603,16.2472982 74.2690603,17.0062982 74.1150603,17.7632982 C77.1600603,17.8032982 80.2050603,17.8622982 83.2490603,17.8422982 C83.5860603,17.8202982 84.0360603,17.8532982 84.2210603,17.5012982 C84.3260603,17.1622982 84.3720603,16.8052982 84.4610603,16.4612982 C84.5670603,15.9292982 84.7100603,15.3742982 84.5860603,14.8332982 C84.4560603,14.4232982 83.9620603,14.3652982 83.5970603,14.3552982 C81.2080603,14.3482982 78.8180603,14.3552982 76.4280603,14.3522982 Z M69.0750603,14.5682982 C68.7650603,14.2972982 68.3250603,14.3552982 67.9450603,14.3512982 C65.3950603,14.3532982 62.8440603,14.3492982 60.2940603,14.3492982 C60.0090603,14.3552982 59.6810603,14.3782982 59.4790603,14.6062982 C59.2900603,14.8632982 59.2450603,15.1902982 59.1880603,15.4972982 C59.0400603,16.2522982 58.8990603,17.0102982 58.7480603,17.7652982 C61.8810603,17.7892982 65.0160603,17.8272982 68.1490603,17.8352982 C68.6060603,17.8622982 68.8510603,17.4172982 68.9460603,17.0342982 C69.0800603,16.4552982 69.2370603,15.8772982 69.2830603,15.2822982 C69.2970603,15.0322982 69.2870603,14.7372982 69.0750603,14.5682982 Z" id="Combined-Shape" fill="#0B0C0A"></path>
                    <path d="M38.3380603,0.0242982054 C40.9470603,-0.00970179459 43.5590603,0.0202982054 46.1690603,0.00829820541 C46.4400603,-0.00370179459 46.7320603,0.0632982054 46.9250603,0.266298205 C47.1620603,0.506298205 47.2080603,0.878298205 47.1140603,1.19129821 C46.8000603,2.33929821 46.4850603,3.48929821 46.1720603,4.63829821 C45.9950603,5.34129821 45.3020603,5.89529821 44.5690603,5.86229821 C42.0160603,5.85929821 39.4630603,5.86329821 36.9100603,5.86029821 C36.6460603,5.86229821 36.3770603,5.75529821 36.2120603,5.54429821 C36.0190603,5.31029821 35.9940603,4.97929821 36.0710603,4.69429821 C36.3850603,3.54229821 36.7020603,2.39129821 37.0140603,1.23929821 C37.1680603,0.624298205 37.7120603,0.124298205 38.3380603,0.0242982054" id="Fill-3" fill="#E77C2E"></path>
                </g>
            </g>
        </g>
    </g>
</svg>