<?xml version="1.0" encoding="UTF-8"?>
<svg width="43px" height="32px" viewBox="0 0 43 32" version="1.1" xmlns="http://www.w3.org/2000/svg" xmlns:xlink="http://www.w3.org/1999/xlink">
    <!-- Generator: sketchtool 63.1 (101010) - https://sketch.com -->
    <title>F9B7AE25-E51C-4EA1-B432-7147B5BDF3DE@svg</title>
    <desc>Created with sketchtool.</desc>
    <g id="tel-320" stroke="none" stroke-width="1" fill="none" fill-rule="evenodd">
        <g id="320-home-ENG" transform="translate(-57.000000, -1039.000000)" fill-rule="nonzero">
            <g id="Group" transform="translate(22.000000, 971.000000)">
                <g id="vox-logo-2019" transform="translate(35.000000, 68.000000)">
                    <g id="vox">
                        <rect id="Rectangle" fill="#E80808" x="0" y="0" width="42.893617" height="32"></rect>
                        <polygon id="Path" fill="#FFFFFF" points="39.8297872 3.06382979 37.487026 15.8297872 37.4783811 15.8297872 39.8297872 28.5957447 37.4783811 28.5957447 35.9118062 20.3445103 34.3507886 28.5957447 32 28.5957447 34.3427613 15.8297872 34.3507886 15.8297872 32 3.06382979 34.3507886 3.06382979 35.9185986 11.6387613 37.4783811 3.06382979"></polygon>
                        <path d="M25.8710902,6.23859129 L25.8710902,25.7626359 C25.8710902,26.4099604 26.4055725,26.9333422 27.0625795,26.9333422 C27.7214619,26.9333422 28.2540689,26.4093468 28.2540689,25.7626359 L28.2540689,6.23859129 C28.2540689,5.59126674 27.7208368,5.06727133 27.0625795,5.06727133 C26.4061977,5.06727133 25.8710902,5.59188032 25.8710902,6.23859129 M23.4893617,25.7773617 L23.4893617,6.23859129 C23.4893617,4.29845839 25.0903083,2.72340426 27.0632047,2.72340426 C29.0386015,2.72340426 30.6382979,4.29784481 30.6382979,6.23859129 L30.6382979,25.7773617 C30.6307964,27.7113589 29.0342256,29.2765957 27.0632047,29.2765957 C25.0934339,29.2765957 23.4962381,27.7113589 23.4893617,25.7773617" id="Shape" fill="#FFFFFF"></path>
                        <polygon id="Path" fill="#FFFFFF" points="21.787234 3.06382979 19.5383314 28.5957447 16.237224 28.5957447 13.9574468 3.06382979 16.3082355 3.06382979 17.8760454 20.7984164 19.4358279 3.06382979"></polygon>
                    </g>
                </g>
            </g>
        </g>
    </g>
</svg>