<?xml version="1.0" encoding="UTF-8"?>
<svg width="51px" height="32px" viewBox="0 0 51 32" version="1.1" xmlns="http://www.w3.org/2000/svg" xmlns:xlink="http://www.w3.org/1999/xlink">
    <!-- Generator: sketchtool 63.1 (101010) - https://sketch.com -->
    <title>D610A4C2-D08A-42F8-ACFF-4AE583978123@svg</title>
    <desc>Created with sketchtool.</desc>
    <g id="Page-1" stroke="none" stroke-width="1" fill="none" fill-rule="evenodd">
        <g id="home-ENG" transform="translate(-552.000000, -1489.000000)" fill="#ED1F23">
            <g id="wp" transform="translate(552.000040, 1489.777759)">
                <path d="M50.3799598,7.4872409 C49.5059598,5.2712409 47.9199598,3.9122409 45.6249598,3.4332409 C45.2249598,3.3492409 44.8129598,3.3272409 44.4029598,3.2862409 C43.7569598,3.2262409 43.1089598,3.1702409 42.4609598,3.1162409 C41.8409598,3.0652409 41.2209598,3.0182409 40.6009598,2.9662409 C40.1149598,2.9292409 39.6339598,2.8882409 39.1499598,2.8482409 C38.6799598,2.8102409 38.2079598,2.7772409 37.7379598,2.7262409 C36.7499598,2.6162409 35.5699598,3.1212409 35.1379598,4.3412409 C35.0079598,4.7062409 34.9479598,5.0812409 34.9109598,5.4672409 C34.8189598,6.4612409 34.7249598,7.4522409 34.6279598,8.4462409 C34.5259598,9.5012409 34.4169598,10.5562409 34.3179598,11.6132409 C34.2342085,12.4951135 34.1555405,13.3774615 34.0819598,14.2602409 C33.9889598,15.3682409 33.9049598,16.4742409 33.8199598,17.5792409 C33.7409598,18.6392409 33.6689598,19.6962409 33.5899598,20.7542409 C33.5769598,20.9422409 33.5599598,21.1322409 33.5329598,21.3172409 C33.5099598,21.4772409 33.4379598,21.5602409 33.3329598,21.5752409 C33.1624813,21.6028341 32.9998093,21.4935115 32.9609598,21.3252409 C32.9239598,21.1752409 32.8999598,21.0232409 32.8689598,20.8722409 C32.0568168,16.639592 31.2361485,12.4085835 30.4069598,8.1792409 C30.2289598,7.2752409 29.9849598,6.3892409 29.5729598,5.5612409 C28.9439598,4.2942409 28.0499598,3.2732409 26.7929598,2.6352409 C24.9839598,1.7162409 23.0889598,1.5392409 21.1439598,2.0692409 C20.1229099,2.34215965 19.2185963,2.94035463 18.5679598,3.7732409 C18.0829598,4.3832409 17.7479598,5.0732409 17.5139598,5.8172409 C17.2539598,6.6542409 17.1509598,7.5212409 17.0699598,8.3902409 C16.9649598,9.5282409 16.8679598,10.6702409 16.7669598,11.8102409 L16.3689598,16.2102409 C16.2649598,17.3722409 16.1629598,18.5332409 16.0559598,19.6932409 C15.9709598,20.6452409 15.8799598,21.5982409 15.7929598,22.5492409 C15.7629598,22.8892409 15.7359598,23.2302409 15.7009598,23.5712409 C15.6739598,23.8112409 15.5769598,23.9112409 15.3579598,23.9452409 C15.0899598,23.9892409 14.9109598,23.8722409 14.8409598,23.5912409 C14.7699598,23.3012409 14.7099598,23.0082409 14.6449598,22.7142409 C14.4309598,21.7622409 14.2229598,20.8072409 14.0019598,19.8572409 C13.7759598,18.8852409 13.5389598,17.9162409 13.3029598,16.9472409 C12.9759598,15.6072409 12.6509598,14.2662409 12.3179598,12.9272409 C12.0419598,11.8312409 11.7579598,10.7382409 11.4749598,9.6452409 C11.1969598,8.5662409 10.9139598,7.4852409 10.6349598,6.4052409 C10.4369598,5.6442409 10.2329598,4.8812409 10.0419598,4.1192409 C9.79095975,3.1072409 9.29195975,2.2542409 8.50195975,1.5822409 C7.58877348,0.790490476 6.47178683,0.270800659 5.27795975,0.0822408976 C3.86395975,-0.144759102 2.53795975,0.0862408976 1.34295975,0.924240898 C0.76295975,1.3292409 0.33295975,1.8562409 0.12495975,2.5552409 C-0.0287976998,3.06675232 -0.0408940473,3.61039674 0.08995975,4.1282409 C0.27695975,4.8662409 0.49795975,5.5912409 0.71595975,6.3182409 C0.97395975,7.1862409 1.25195975,8.0482409 1.51595975,8.9162409 C1.82395975,9.9302409 2.12495975,10.9442409 2.42795975,11.9582409 C2.69395975,12.8452409 2.96195975,13.7312409 3.22995975,14.6202409 C3.49395975,15.4952409 3.75695975,16.3672409 4.01795975,17.2432409 L4.67095975,19.4482409 C4.91695975,20.2692409 5.16595975,21.0882409 5.41395975,21.9102409 C5.62195975,22.6032409 5.83595975,23.2942409 6.03695975,23.9922409 C6.28795975,24.8532409 6.54695975,25.7162409 6.91695975,26.5352409 C7.33095975,27.4572409 7.90995975,28.2512409 8.69795975,28.8772409 C9.87595975,29.8102409 11.2319598,30.2572409 12.6999598,30.3912409 C13.5069598,30.4652409 14.3119598,30.4152409 15.1139598,30.3032409 C16.4979598,30.1112409 17.8119598,29.7072409 19.0099598,28.9532409 C20.1699598,28.2232409 21.0999598,27.2732409 21.6999598,26.0102409 C22.1199598,25.1302409 22.3259598,24.1942409 22.4299598,23.2302409 C22.5419598,22.2192409 22.6319598,21.2042409 22.7309598,20.1902409 L23.1289598,16.1502409 C23.2349598,15.0512409 23.3349598,13.9532409 23.4419598,12.8562409 C23.5629598,11.5982409 23.6879598,10.3402409 23.8119598,9.0822409 C23.8319598,8.8822409 23.8489598,8.6792409 23.8789598,8.4792409 C23.9089598,8.2672409 24.0109598,8.1572409 24.1819598,8.1392409 C24.3739598,8.1192409 24.4949598,8.2032409 24.5699598,8.4082409 C24.5869598,8.4612409 24.5999598,8.5142409 24.6119598,8.5702409 L24.9519598,10.1212409 C25.2869598,11.6492409 25.6229598,13.1732409 25.9609598,14.6992409 C26.2639598,16.0802409 26.5669598,17.4622409 26.8779598,18.8442409 C27.1879598,20.2262409 27.4959598,21.6062409 27.8209598,22.9822409 C27.9829598,23.6652409 28.2339598,24.3162409 28.6229598,24.9002409 C29.4659598,26.1542409 30.6329598,26.8212409 32.1159598,26.9142409 C32.8624619,26.9645498 33.6119025,26.8791705 34.3279598,26.6622409 C35.2979598,26.3652409 36.1729598,25.8922409 36.9059598,25.1682409 C37.7779598,24.3042409 38.2899598,23.2412409 38.5359598,22.0372409 C38.6719598,21.3722409 38.7189598,20.6952409 38.7889598,20.0242409 C38.9359598,18.6372409 39.0819598,17.2502409 39.2269598,15.8602409 C39.3459598,14.6942409 39.4589598,13.5272409 39.5789598,12.3612409 C39.6589598,11.5702409 39.7349598,10.7792409 39.8169598,9.9882409 C39.8719598,9.4752409 39.9269598,8.9632409 39.9869598,8.4202409 L40.2269598,8.4202409 C41.5489598,8.4402409 42.8679598,8.4612409 44.1889598,8.4872409 C44.5179598,8.4922409 44.8479598,8.4902409 45.1739598,8.5272409 C47.6099598,8.7142409 47.2579598,14.0272409 45.4139598,14.3392409 C45.0569598,14.3992409 44.6939598,14.4292409 44.3339598,14.4562409 C43.7199598,14.5032409 43.1039598,14.5352409 42.4899598,14.5752409 C42.0749598,14.6022409 41.7429598,14.7952409 41.4869598,15.1172409 C41.3509598,15.2902409 41.2209598,15.4772409 41.1239598,15.6722409 C40.7439598,16.4282409 40.6919598,17.2222409 40.8859598,18.0362409 C40.9719598,18.3962409 41.1289598,18.7332409 41.3779598,19.0142409 C41.6479598,19.3222409 41.9839598,19.4582409 42.3879598,19.4102409 C42.5779598,19.3902409 42.7679598,19.3652409 42.9579598,19.3402409 C43.6979598,19.2472409 44.4379598,19.1592409 45.1779598,19.0602409 C45.6519598,18.9962409 46.1279598,18.9282409 46.5839598,18.7762409 C48.4049598,18.1772409 49.6989598,17.0062409 50.3799598,15.1562409 C50.7499598,14.1462409 50.9219598,13.0992409 50.9739598,12.0322409 C51.0139598,11.2102409 51.0209598,10.3852409 50.8969598,9.5672409 C50.7899598,8.8542409 50.6439598,8.1572409 50.3799598,7.4872409 L50.3799598,7.4872409 Z" id="Path"></path>
            </g>
        </g>
    </g>
</svg>